  0
SECTION
  2
HEADER
  9
$ACADVER
  1
AC1009
  9
$FILLMODE
 70
1
  9
$EXTMIN
 10
-0.2032
 20
-0.9650
 30
0.0000
  9
$EXTMAX
 10
26.8732
 20
18.9990
 30
0.0000
  0
ENDSEC
  0
SECTION
  2
TABLES
  0
TABLE
  2
LTYPE
 70
1
  0
LTYPE
  2
CONTINUOUS
 70
64
  3
Solid line
 72
65
 73
0
 40
0
  0
ENDTAB
  0
TABLE
  2
LAYER
 70
255
  0
LAYER
  2
20
 70
64
 62
7
  6
CONTINUOUS
  0
LAYER
  2
46
 70
64
 62
140
  6
CONTINUOUS
  0
ENDTAB
  0
ENDSEC
  0
SECTION
  2
BLOCKS
  0
BLOCK
  8
0
  2
RECT
 70
64
 10
0.0000
 20
0.0000
 30
0.0000
  3
RECT
  0
SOLID
  8
0
 10
-0.5000
 20
-0.5000
 30
0.0000
 11
0.5000
 21
-0.5000
 31
0.0000
 12
-0.5000
 22
0.5000
 32
0.0000
 13
0.5000
 23
0.5000
 33
0.0000
  0
ENDBLK
  8
0
  0
BLOCK
  8
0
  2
PIE
 70
64
 10
0.0000
 20
0.0000
 30
0.0000
  3
PIE
  0
POLYLINE
  8
0
 66
1
 10
0.0000
 20
0.0000
 30
0.0000
 40
0.5000
 41
0.5000
 70
0
  0
VERTEX
  8
0
 10
0.0000
 20
-0.2500
 30
0.0000
 42
1.0000
  0
VERTEX
  8
0
 10
0.0000
 20
0.2500
 30
0.0000
 42
1.0000
  0
VERTEX
  8
0
 10
0.0000
 20
-0.2500
 30
0.0000
  0
SEQEND
  8
0
  0
ENDBLK
  8
0
  0
BLOCK
  8
0
  2
OCTAGONP
 70
64
 10
0.0000
 20
0.0000
 30
0.0000
  3
OCTAGONP
  0
POLYLINE
  8
0
 66
1
 10
0.0000
 20
0.0000
 30
0.0000
 40
0.5000
 41
0.5000
 70
0
  0
VERTEX
  8
0
 10
-0.2500
 20
-0.1036
 30
0.0000
  0
VERTEX
  8
0
 10
-0.2500
 20
0.1036
 30
0.0000
  0
VERTEX
  8
0
 10
-0.1036
 20
0.2500
 30
0.0000
  0
VERTEX
  8
0
 10
0.1036
 20
0.2500
 30
0.0000
  0
VERTEX
  8
0
 10
0.2500
 20
0.1036
 30
0.0000
  0
VERTEX
  8
0
 10
0.2500
 20
-0.1036
 30
0.0000
  0
VERTEX
  8
0
 10
0.1036
 20
-0.2500
 30
0.0000
  0
VERTEX
  8
0
 10
-0.1036
 20
-0.2500
 30
0.0000
  0
VERTEX
  8
0
 10
-0.2500
 20
-0.1036
 30
0.0000
  0
VERTEX
  8
0
 10
-0.2500
 20
0.1036
 30
0.0000
  0
SEQEND
  8
0
  0
ENDBLK
  8
0
  0
BLOCK
  8
0
  2
SQUAREP
 70
64
 10
0.0000
 20
0.0000
 30
0.0000
  3
SQUAREP
  0
SOLID
  8
0
 10
-0.5000
 20
-0.5000
 30
0.0000
 11
0.5000
 21
-0.5000
 31
0.0000
 12
-0.5000
 22
0.5000
 32
0.0000
 13
0.5000
 23
0.5000
 33
0.0000
  0
ENDBLK
  8
0
  0
BLOCK
  8
0
  2
ROUNDP
 70
64
 10
0.0000
 20
0.0000
 30
0.0000
  3
ROUNDP
  0
POLYLINE
  8
0
 66
1
 10
0.0000
 20
0.0000
 30
0.0000
 40
0.5000
 41
0.5000
 70
0
  0
VERTEX
  8
0
 10
0.0000
 20
-0.2500
 30
0.0000
 42
1.0000
  0
VERTEX
  8
0
 10
0.0000
 20
0.2500
 30
0.0000
 42
1.0000
  0
VERTEX
  8
0
 10
0.0000
 20
-0.2500
 30
0.0000
  0
SEQEND
  8
0
  0
ENDBLK
  8
0
  0
BLOCK
  8
0
  2
ANNULUSP
 70
64
 10
0.0000
 20
0.0000
 30
0.0000
  3
ANNULUSP
  0
POLYLINE
  8
0
 66
1
 10
0.0000
 20
0.0000
 30
0.0000
 40
0.5000
 41
0.5000
 70
0
  0
VERTEX
  8
0
 10
0.0000
 20
-0.2500
 30
0.0000
 42
1.0000
  0
VERTEX
  8
0
 10
0.0000
 20
0.2500
 30
0.0000
 42
1.0000
  0
VERTEX
  8
0
 10
0.0000
 20
-0.2500
 30
0.0000
  0
SEQEND
  8
0
  0
ENDBLK
  8
0
  0
BLOCK
  8
0
  2
THERMALP
 70
64
 10
0.0000
 20
0.0000
 30
0.0000
  3
THERMALP
  0
POLYLINE
  8
0
 66
1
 10
0.0000
 20
0.0000
 30
0.0000
 40
0.1000
 41
0.1000
 70
0
  0
VERTEX
  8
0
 10
-0.2379
 20
0.4500
 30
0.0000
  0
VERTEX
  8
0
 10
0.2379
 20
0.4500
 30
0.0000
  0
SEQEND
  8
0
  0
POLYLINE
  8
0
 66
1
 10
0.0000
 20
0.0000
 30
0.0000
 40
0.0500
 41
0.0500
 70
0
  0
VERTEX
  8
0
 10
0.2379
 20
0.4250
 30
0.0000
 42
1.0000
  0
VERTEX
  8
0
 10
0.2379
 20
0.4750
 30
0.0000
  0
SEQEND
  8
0
  0
POLYLINE
  8
0
 66
1
 10
0.0000
 20
0.0000
 30
0.0000
 40
0.0500
 41
0.0500
 70
0
  0
VERTEX
  8
0
 10
-0.2379
 20
0.4750
 30
0.0000
 42
1.0000
  0
VERTEX
  8
0
 10
-0.2379
 20
0.4250
 30
0.0000
  0
SEQEND
  8
0
  0
POLYLINE
  8
0
 66
1
 10
0.0000
 20
0.0000
 30
0.0000
 40
0.1000
 41
0.1000
 70
0
  0
VERTEX
  8
0
 10
0.4500
 20
0.2379
 30
0.0000
  0
VERTEX
  8
0
 10
0.4500
 20
-0.2379
 30
0.0000
  0
SEQEND
  8
0
  0
POLYLINE
  8
0
 66
1
 10
0.0000
 20
0.0000
 30
0.0000
 40
0.0500
 41
0.0500
 70
0
  0
VERTEX
  8
0
 10
0.4250
 20
-0.2379
 30
0.0000
 42
1.0000
  0
VERTEX
  8
0
 10
0.4750
 20
-0.2379
 30
0.0000
  0
SEQEND
  8
0
  0
POLYLINE
  8
0
 66
1
 10
0.0000
 20
0.0000
 30
0.0000
 40
0.0500
 41
0.0500
 70
0
  0
VERTEX
  8
0
 10
0.4750
 20
0.2379
 30
0.0000
 42
1.0000
  0
VERTEX
  8
0
 10
0.4250
 20
0.2379
 30
0.0000
  0
SEQEND
  8
0
  0
POLYLINE
  8
0
 66
1
 10
0.0000
 20
0.0000
 30
0.0000
 40
0.1000
 41
0.1000
 70
0
  0
VERTEX
  8
0
 10
0.2379
 20
-0.4500
 30
0.0000
  0
VERTEX
  8
0
 10
-0.2379
 20
-0.4500
 30
0.0000
  0
SEQEND
  8
0
  0
POLYLINE
  8
0
 66
1
 10
0.0000
 20
0.0000
 30
0.0000
 40
0.0500
 41
0.0500
 70
0
  0
VERTEX
  8
0
 10
-0.2379
 20
-0.4250
 30
0.0000
 42
1.0000
  0
VERTEX
  8
0
 10
-0.2379
 20
-0.4750
 30
0.0000
  0
SEQEND
  8
0
  0
POLYLINE
  8
0
 66
1
 10
0.0000
 20
0.0000
 30
0.0000
 40
0.0500
 41
0.0500
 70
0
  0
VERTEX
  8
0
 10
0.2379
 20
-0.4750
 30
0.0000
 42
1.0000
  0
VERTEX
  8
0
 10
0.2379
 20
-0.4250
 30
0.0000
  0
SEQEND
  8
0
  0
POLYLINE
  8
0
 66
1
 10
0.0000
 20
0.0000
 30
0.0000
 40
0.1000
 41
0.1000
 70
0
  0
VERTEX
  8
0
 10
-0.4500
 20
-0.2379
 30
0.0000
  0
VERTEX
  8
0
 10
-0.4500
 20
0.2379
 30
0.0000
  0
SEQEND
  8
0
  0
POLYLINE
  8
0
 66
1
 10
0.0000
 20
0.0000
 30
0.0000
 40
0.0500
 41
0.0500
 70
0
  0
VERTEX
  8
0
 10
-0.4250
 20
0.2379
 30
0.0000
 42
1.0000
  0
VERTEX
  8
0
 10
-0.4750
 20
0.2379
 30
0.0000
  0
SEQEND
  8
0
  0
POLYLINE
  8
0
 66
1
 10
0.0000
 20
0.0000
 30
0.0000
 40
0.0500
 41
0.0500
 70
0
  0
VERTEX
  8
0
 10
-0.4750
 20
-0.2379
 30
0.0000
 42
1.0000
  0
VERTEX
  8
0
 10
-0.4250
 20
-0.2379
 30
0.0000
  0
SEQEND
  8
0
  0
ENDBLK
  8
0
  0
BLOCK
  8
0
  2
OCTAGONV
 70
64
 10
0.0000
 20
0.0000
 30
0.0000
  3
OCTAGONV
  0
POLYLINE
  8
0
 66
1
 10
0.0000
 20
0.0000
 30
0.0000
 40
0.5000
 41
0.5000
 70
0
  0
VERTEX
  8
0
 10
-0.2500
 20
-0.1036
 30
0.0000
  0
VERTEX
  8
0
 10
-0.2500
 20
0.1036
 30
0.0000
  0
VERTEX
  8
0
 10
-0.1036
 20
0.2500
 30
0.0000
  0
VERTEX
  8
0
 10
0.1036
 20
0.2500
 30
0.0000
  0
VERTEX
  8
0
 10
0.2500
 20
0.1036
 30
0.0000
  0
VERTEX
  8
0
 10
0.2500
 20
-0.1036
 30
0.0000
  0
VERTEX
  8
0
 10
0.1036
 20
-0.2500
 30
0.0000
  0
VERTEX
  8
0
 10
-0.1036
 20
-0.2500
 30
0.0000
  0
VERTEX
  8
0
 10
-0.2500
 20
-0.1036
 30
0.0000
  0
VERTEX
  8
0
 10
-0.2500
 20
0.1036
 30
0.0000
  0
SEQEND
  8
0
  0
ENDBLK
  8
0
  0
BLOCK
  8
0
  2
SQUAREV
 70
64
 10
0.0000
 20
0.0000
 30
0.0000
  3
SQUAREV
  0
SOLID
  8
0
 10
-0.5000
 20
-0.5000
 30
0.0000
 11
0.5000
 21
-0.5000
 31
0.0000
 12
-0.5000
 22
0.5000
 32
0.0000
 13
0.5000
 23
0.5000
 33
0.0000
  0
ENDBLK
  8
0
  0
BLOCK
  8
0
  2
ROUNDV
 70
64
 10
0.0000
 20
0.0000
 30
0.0000
  3
ROUNDV
  0
POLYLINE
  8
0
 66
1
 10
0.0000
 20
0.0000
 30
0.0000
 40
0.5000
 41
0.5000
 70
0
  0
VERTEX
  8
0
 10
0.0000
 20
-0.2500
 30
0.0000
 42
1.0000
  0
VERTEX
  8
0
 10
0.0000
 20
0.2500
 30
0.0000
 42
1.0000
  0
VERTEX
  8
0
 10
0.0000
 20
-0.2500
 30
0.0000
  0
SEQEND
  8
0
  0
ENDBLK
  8
0
  0
BLOCK
  8
0
  2
ANNULUSV
 70
64
 10
0.0000
 20
0.0000
 30
0.0000
  3
ANNULUSV
  0
POLYLINE
  8
0
 66
1
 10
0.0000
 20
0.0000
 30
0.0000
 40
0.5000
 41
0.5000
 70
0
  0
VERTEX
  8
0
 10
0.0000
 20
-0.2500
 30
0.0000
 42
1.0000
  0
VERTEX
  8
0
 10
0.0000
 20
0.2500
 30
0.0000
 42
1.0000
  0
VERTEX
  8
0
 10
0.0000
 20
-0.2500
 30
0.0000
  0
SEQEND
  8
0
  0
ENDBLK
  8
0
  0
BLOCK
  8
0
  2
THERMALV
 70
64
 10
0.0000
 20
0.0000
 30
0.0000
  3
THERMALV
  0
POLYLINE
  8
0
 66
1
 10
0.0000
 20
0.0000
 30
0.0000
 40
0.1000
 41
0.1000
 70
0
  0
VERTEX
  8
0
 10
-0.2379
 20
0.4500
 30
0.0000
  0
VERTEX
  8
0
 10
0.2379
 20
0.4500
 30
0.0000
  0
SEQEND
  8
0
  0
POLYLINE
  8
0
 66
1
 10
0.0000
 20
0.0000
 30
0.0000
 40
0.0500
 41
0.0500
 70
0
  0
VERTEX
  8
0
 10
0.2379
 20
0.4250
 30
0.0000
 42
1.0000
  0
VERTEX
  8
0
 10
0.2379
 20
0.4750
 30
0.0000
  0
SEQEND
  8
0
  0
POLYLINE
  8
0
 66
1
 10
0.0000
 20
0.0000
 30
0.0000
 40
0.0500
 41
0.0500
 70
0
  0
VERTEX
  8
0
 10
-0.2379
 20
0.4750
 30
0.0000
 42
1.0000
  0
VERTEX
  8
0
 10
-0.2379
 20
0.4250
 30
0.0000
  0
SEQEND
  8
0
  0
POLYLINE
  8
0
 66
1
 10
0.0000
 20
0.0000
 30
0.0000
 40
0.1000
 41
0.1000
 70
0
  0
VERTEX
  8
0
 10
0.4500
 20
0.2379
 30
0.0000
  0
VERTEX
  8
0
 10
0.4500
 20
-0.2379
 30
0.0000
  0
SEQEND
  8
0
  0
POLYLINE
  8
0
 66
1
 10
0.0000
 20
0.0000
 30
0.0000
 40
0.0500
 41
0.0500
 70
0
  0
VERTEX
  8
0
 10
0.4250
 20
-0.2379
 30
0.0000
 42
1.0000
  0
VERTEX
  8
0
 10
0.4750
 20
-0.2379
 30
0.0000
  0
SEQEND
  8
0
  0
POLYLINE
  8
0
 66
1
 10
0.0000
 20
0.0000
 30
0.0000
 40
0.0500
 41
0.0500
 70
0
  0
VERTEX
  8
0
 10
0.4750
 20
0.2379
 30
0.0000
 42
1.0000
  0
VERTEX
  8
0
 10
0.4250
 20
0.2379
 30
0.0000
  0
SEQEND
  8
0
  0
POLYLINE
  8
0
 66
1
 10
0.0000
 20
0.0000
 30
0.0000
 40
0.1000
 41
0.1000
 70
0
  0
VERTEX
  8
0
 10
0.2379
 20
-0.4500
 30
0.0000
  0
VERTEX
  8
0
 10
-0.2379
 20
-0.4500
 30
0.0000
  0
SEQEND
  8
0
  0
POLYLINE
  8
0
 66
1
 10
0.0000
 20
0.0000
 30
0.0000
 40
0.0500
 41
0.0500
 70
0
  0
VERTEX
  8
0
 10
-0.2379
 20
-0.4250
 30
0.0000
 42
1.0000
  0
VERTEX
  8
0
 10
-0.2379
 20
-0.4750
 30
0.0000
  0
SEQEND
  8
0
  0
POLYLINE
  8
0
 66
1
 10
0.0000
 20
0.0000
 30
0.0000
 40
0.0500
 41
0.0500
 70
0
  0
VERTEX
  8
0
 10
0.2379
 20
-0.4750
 30
0.0000
 42
1.0000
  0
VERTEX
  8
0
 10
0.2379
 20
-0.4250
 30
0.0000
  0
SEQEND
  8
0
  0
POLYLINE
  8
0
 66
1
 10
0.0000
 20
0.0000
 30
0.0000
 40
0.1000
 41
0.1000
 70
0
  0
VERTEX
  8
0
 10
-0.4500
 20
-0.2379
 30
0.0000
  0
VERTEX
  8
0
 10
-0.4500
 20
0.2379
 30
0.0000
  0
SEQEND
  8
0
  0
POLYLINE
  8
0
 66
1
 10
0.0000
 20
0.0000
 30
0.0000
 40
0.0500
 41
0.0500
 70
0
  0
VERTEX
  8
0
 10
-0.4250
 20
0.2379
 30
0.0000
 42
1.0000
  0
VERTEX
  8
0
 10
-0.4750
 20
0.2379
 30
0.0000
  0
SEQEND
  8
0
  0
POLYLINE
  8
0
 66
1
 10
0.0000
 20
0.0000
 30
0.0000
 40
0.0500
 41
0.0500
 70
0
  0
VERTEX
  8
0
 10
-0.4750
 20
-0.2379
 30
0.0000
 42
1.0000
  0
VERTEX
  8
0
 10
-0.4250
 20
-0.2379
 30
0.0000
  0
SEQEND
  8
0
  0
ENDBLK
  8
0
  0
ENDSEC
  0
SECTION
  2
ENTITIES
  0
LINE
  8
20
 10
1.0000
 20
0.0000
 30
0.0000
 11
25.6700
 21
0.0000
 31
0.0000
  0
ARC
  8
20
 10
25.6700
 20
1.0000
 30
0.0000
 40
1.0000
 50
270.0000
 51
0.0000
  0
LINE
  8
20
 10
26.6700
 20
1.0000
 30
0.0000
 11
26.6700
 21
17.0340
 31
0.0000
  0
ARC
  8
20
 10
25.6700
 20
17.0340
 30
0.0000
 40
1.0000
 50
0.0000
 51
90.0000
  0
LINE
  8
20
 10
25.6700
 20
18.0340
 30
0.0000
 11
1.0000
 21
18.0340
 31
0.0000
  0
ARC
  8
20
 10
1.0000
 20
17.0340
 30
0.0000
 40
1.0000
 50
90.0000
 51
180.0000
  0
LINE
  8
20
 10
0.0000
 20
17.0340
 30
0.0000
 11
0.0000
 21
1.0000
 31
0.0000
  0
ARC
  8
20
 10
1.0000
 20
1.0000
 30
0.0000
 40
1.0000
 50
180.0000
 51
270.0000
  0
POLYLINE
  8
46
 66
1
 10
0.0000
 20
0.0000
 30
0.0000
 40
1.0000
 41
1.0000
 70
0
  0
VERTEX
  8
46
 10
3.3020
 20
12.4460
 30
0.0000
  0
VERTEX
  8
46
 10
15.2400
 20
12.4460
 30
0.0000
  0
SEQEND
  8
0
  0
POLYLINE
  8
46
 66
1
 10
0.0000
 20
0.0000
 30
0.0000
 40
0.5000
 41
0.5000
 70
0
  0
VERTEX
  8
46
 10
15.2400
 20
12.1960
 30
0.0000
 42
1.0000
  0
VERTEX
  8
46
 10
15.2400
 20
12.6960
 30
0.0000
  0
SEQEND
  8
0
  0
POLYLINE
  8
46
 66
1
 10
0.0000
 20
0.0000
 30
0.0000
 40
0.5000
 41
0.5000
 70
0
  0
VERTEX
  8
46
 10
3.3020
 20
12.6960
 30
0.0000
 42
1.0000
  0
VERTEX
  8
46
 10
3.3020
 20
12.1960
 30
0.0000
  0
SEQEND
  8
0
  0
POLYLINE
  8
46
 66
1
 10
0.0000
 20
0.0000
 30
0.0000
 40
1.0000
 41
1.0000
 70
0
  0
VERTEX
  8
46
 10
15.2400
 20
12.4460
 30
0.0000
  0
VERTEX
  8
46
 10
15.2400
 20
13.4620
 30
0.0000
  0
SEQEND
  8
0
  0
POLYLINE
  8
46
 66
1
 10
0.0000
 20
0.0000
 30
0.0000
 40
0.5000
 41
0.5000
 70
0
  0
VERTEX
  8
46
 10
15.4900
 20
13.4620
 30
0.0000
 42
1.0000
  0
VERTEX
  8
46
 10
14.9900
 20
13.4620
 30
0.0000
  0
SEQEND
  8
0
  0
POLYLINE
  8
46
 66
1
 10
0.0000
 20
0.0000
 30
0.0000
 40
0.5000
 41
0.5000
 70
0
  0
VERTEX
  8
46
 10
14.9900
 20
12.4460
 30
0.0000
 42
1.0000
  0
VERTEX
  8
46
 10
15.4900
 20
12.4460
 30
0.0000
  0
SEQEND
  8
0
  0
POLYLINE
  8
46
 66
1
 10
0.0000
 20
0.0000
 30
0.0000
 40
1.0000
 41
1.0000
 70
0
  0
VERTEX
  8
46
 10
15.2400
 20
13.4620
 30
0.0000
  0
VERTEX
  8
46
 10
18.0340
 20
13.4620
 30
0.0000
  0
SEQEND
  8
0
  0
POLYLINE
  8
46
 66
1
 10
0.0000
 20
0.0000
 30
0.0000
 40
0.5000
 41
0.5000
 70
0
  0
VERTEX
  8
46
 10
18.0340
 20
13.2120
 30
0.0000
 42
1.0000
  0
VERTEX
  8
46
 10
18.0340
 20
13.7120
 30
0.0000
  0
SEQEND
  8
0
  0
POLYLINE
  8
46
 66
1
 10
0.0000
 20
0.0000
 30
0.0000
 40
0.5000
 41
0.5000
 70
0
  0
VERTEX
  8
46
 10
15.2400
 20
13.7120
 30
0.0000
 42
1.0000
  0
VERTEX
  8
46
 10
15.2400
 20
13.2120
 30
0.0000
  0
SEQEND
  8
0
  0
POLYLINE
  8
46
 66
1
 10
0.0000
 20
0.0000
 30
0.0000
 40
1.0000
 41
1.0000
 70
0
  0
VERTEX
  8
46
 10
18.0340
 20
13.4620
 30
0.0000
  0
VERTEX
  8
46
 10
18.0340
 20
15.7480
 30
0.0000
  0
SEQEND
  8
0
  0
POLYLINE
  8
46
 66
1
 10
0.0000
 20
0.0000
 30
0.0000
 40
0.5000
 41
0.5000
 70
0
  0
VERTEX
  8
46
 10
18.2840
 20
15.7480
 30
0.0000
 42
1.0000
  0
VERTEX
  8
46
 10
17.7840
 20
15.7480
 30
0.0000
  0
SEQEND
  8
0
  0
POLYLINE
  8
46
 66
1
 10
0.0000
 20
0.0000
 30
0.0000
 40
0.5000
 41
0.5000
 70
0
  0
VERTEX
  8
46
 10
17.7840
 20
13.4620
 30
0.0000
 42
1.0000
  0
VERTEX
  8
46
 10
18.2840
 20
13.4620
 30
0.0000
  0
SEQEND
  8
0
  0
POLYLINE
  8
46
 66
1
 10
0.0000
 20
0.0000
 30
0.0000
 40
1.0000
 41
1.0000
 70
0
  0
VERTEX
  8
46
 10
18.0340
 20
15.7480
 30
0.0000
  0
VERTEX
  8
46
 10
23.1140
 20
15.7480
 30
0.0000
  0
SEQEND
  8
0
  0
POLYLINE
  8
46
 66
1
 10
0.0000
 20
0.0000
 30
0.0000
 40
0.5000
 41
0.5000
 70
0
  0
VERTEX
  8
46
 10
23.1140
 20
15.4980
 30
0.0000
 42
1.0000
  0
VERTEX
  8
46
 10
23.1140
 20
15.9980
 30
0.0000
  0
SEQEND
  8
0
  0
POLYLINE
  8
46
 66
1
 10
0.0000
 20
0.0000
 30
0.0000
 40
0.5000
 41
0.5000
 70
0
  0
VERTEX
  8
46
 10
18.0340
 20
15.9980
 30
0.0000
 42
1.0000
  0
VERTEX
  8
46
 10
18.0340
 20
15.4980
 30
0.0000
  0
SEQEND
  8
0
  0
POLYLINE
  8
46
 66
1
 10
0.0000
 20
0.0000
 30
0.0000
 40
1.0000
 41
1.0000
 70
0
  0
VERTEX
  8
46
 10
23.1140
 20
15.7480
 30
0.0000
  0
VERTEX
  8
46
 10
23.1140
 20
16.7640
 30
0.0000
  0
SEQEND
  8
0
  0
POLYLINE
  8
46
 66
1
 10
0.0000
 20
0.0000
 30
0.0000
 40
0.5000
 41
0.5000
 70
0
  0
VERTEX
  8
46
 10
23.3640
 20
16.7640
 30
0.0000
 42
1.0000
  0
VERTEX
  8
46
 10
22.8640
 20
16.7640
 30
0.0000
  0
SEQEND
  8
0
  0
POLYLINE
  8
46
 66
1
 10
0.0000
 20
0.0000
 30
0.0000
 40
0.5000
 41
0.5000
 70
0
  0
VERTEX
  8
46
 10
22.8640
 20
15.7480
 30
0.0000
 42
1.0000
  0
VERTEX
  8
46
 10
23.3640
 20
15.7480
 30
0.0000
  0
SEQEND
  8
0
  0
POLYLINE
  8
46
 66
1
 10
0.0000
 20
0.0000
 30
0.0000
 40
1.0000
 41
1.0000
 70
0
  0
VERTEX
  8
46
 10
3.3020
 20
12.4460
 30
0.0000
  0
VERTEX
  8
46
 10
3.3020
 20
5.3340
 30
0.0000
  0
SEQEND
  8
0
  0
POLYLINE
  8
46
 66
1
 10
0.0000
 20
0.0000
 30
0.0000
 40
0.5000
 41
0.5000
 70
0
  0
VERTEX
  8
46
 10
3.0520
 20
5.3340
 30
0.0000
 42
1.0000
  0
VERTEX
  8
46
 10
3.5520
 20
5.3340
 30
0.0000
  0
SEQEND
  8
0
  0
POLYLINE
  8
46
 66
1
 10
0.0000
 20
0.0000
 30
0.0000
 40
0.5000
 41
0.5000
 70
0
  0
VERTEX
  8
46
 10
3.5520
 20
12.4460
 30
0.0000
 42
1.0000
  0
VERTEX
  8
46
 10
3.0520
 20
12.4460
 30
0.0000
  0
SEQEND
  8
0
  0
POLYLINE
  8
46
 66
1
 10
0.0000
 20
0.0000
 30
0.0000
 40
1.0000
 41
1.0000
 70
0
  0
VERTEX
  8
46
 10
3.3020
 20
5.3340
 30
0.0000
  0
VERTEX
  8
46
 10
8.8900
 20
5.3340
 30
0.0000
  0
SEQEND
  8
0
  0
POLYLINE
  8
46
 66
1
 10
0.0000
 20
0.0000
 30
0.0000
 40
0.5000
 41
0.5000
 70
0
  0
VERTEX
  8
46
 10
8.8900
 20
5.0840
 30
0.0000
 42
1.0000
  0
VERTEX
  8
46
 10
8.8900
 20
5.5840
 30
0.0000
  0
SEQEND
  8
0
  0
POLYLINE
  8
46
 66
1
 10
0.0000
 20
0.0000
 30
0.0000
 40
0.5000
 41
0.5000
 70
0
  0
VERTEX
  8
46
 10
3.3020
 20
5.5840
 30
0.0000
 42
1.0000
  0
VERTEX
  8
46
 10
3.3020
 20
5.0840
 30
0.0000
  0
SEQEND
  8
0
  0
POLYLINE
  8
46
 66
1
 10
0.0000
 20
0.0000
 30
0.0000
 40
1.0000
 41
1.0000
 70
0
  0
VERTEX
  8
46
 10
8.8900
 20
5.3340
 30
0.0000
  0
VERTEX
  8
46
 10
8.8900
 20
3.5560
 30
0.0000
  0
SEQEND
  8
0
  0
POLYLINE
  8
46
 66
1
 10
0.0000
 20
0.0000
 30
0.0000
 40
0.5000
 41
0.5000
 70
0
  0
VERTEX
  8
46
 10
8.6400
 20
3.5560
 30
0.0000
 42
1.0000
  0
VERTEX
  8
46
 10
9.1400
 20
3.5560
 30
0.0000
  0
SEQEND
  8
0
  0
POLYLINE
  8
46
 66
1
 10
0.0000
 20
0.0000
 30
0.0000
 40
0.5000
 41
0.5000
 70
0
  0
VERTEX
  8
46
 10
9.1400
 20
5.3340
 30
0.0000
 42
1.0000
  0
VERTEX
  8
46
 10
8.6400
 20
5.3340
 30
0.0000
  0
SEQEND
  8
0
  0
POLYLINE
  8
46
 66
1
 10
0.0000
 20
0.0000
 30
0.0000
 40
1.0000
 41
1.0000
 70
0
  0
VERTEX
  8
46
 10
8.8900
 20
3.5560
 30
0.0000
  0
VERTEX
  8
46
 10
21.0820
 20
3.5560
 30
0.0000
  0
SEQEND
  8
0
  0
POLYLINE
  8
46
 66
1
 10
0.0000
 20
0.0000
 30
0.0000
 40
0.5000
 41
0.5000
 70
0
  0
VERTEX
  8
46
 10
21.0820
 20
3.3060
 30
0.0000
 42
1.0000
  0
VERTEX
  8
46
 10
21.0820
 20
3.8060
 30
0.0000
  0
SEQEND
  8
0
  0
POLYLINE
  8
46
 66
1
 10
0.0000
 20
0.0000
 30
0.0000
 40
0.5000
 41
0.5000
 70
0
  0
VERTEX
  8
46
 10
8.8900
 20
3.8060
 30
0.0000
 42
1.0000
  0
VERTEX
  8
46
 10
8.8900
 20
3.3060
 30
0.0000
  0
SEQEND
  8
0
  0
POLYLINE
  8
46
 66
1
 10
0.0000
 20
0.0000
 30
0.0000
 40
1.0000
 41
1.0000
 70
0
  0
VERTEX
  8
46
 10
21.0820
 20
3.5560
 30
0.0000
  0
VERTEX
  8
46
 10
21.0820
 20
3.3020
 30
0.0000
  0
SEQEND
  8
0
  0
POLYLINE
  8
46
 66
1
 10
0.0000
 20
0.0000
 30
0.0000
 40
0.5000
 41
0.5000
 70
0
  0
VERTEX
  8
46
 10
20.8320
 20
3.3020
 30
0.0000
 42
1.0000
  0
VERTEX
  8
46
 10
21.3320
 20
3.3020
 30
0.0000
  0
SEQEND
  8
0
  0
POLYLINE
  8
46
 66
1
 10
0.0000
 20
0.0000
 30
0.0000
 40
0.5000
 41
0.5000
 70
0
  0
VERTEX
  8
46
 10
21.3320
 20
3.5560
 30
0.0000
 42
1.0000
  0
VERTEX
  8
46
 10
20.8320
 20
3.5560
 30
0.0000
  0
SEQEND
  8
0
  0
POLYLINE
  8
46
 66
1
 10
0.0000
 20
0.0000
 30
0.0000
 40
1.0000
 41
1.0000
 70
0
  0
VERTEX
  8
46
 10
21.0820
 20
3.3020
 30
0.0000
  0
VERTEX
  8
46
 10
23.1140
 20
3.3020
 30
0.0000
  0
SEQEND
  8
0
  0
POLYLINE
  8
46
 66
1
 10
0.0000
 20
0.0000
 30
0.0000
 40
0.5000
 41
0.5000
 70
0
  0
VERTEX
  8
46
 10
23.1140
 20
3.0520
 30
0.0000
 42
1.0000
  0
VERTEX
  8
46
 10
23.1140
 20
3.5520
 30
0.0000
  0
SEQEND
  8
0
  0
POLYLINE
  8
46
 66
1
 10
0.0000
 20
0.0000
 30
0.0000
 40
0.5000
 41
0.5000
 70
0
  0
VERTEX
  8
46
 10
21.0820
 20
3.5520
 30
0.0000
 42
1.0000
  0
VERTEX
  8
46
 10
21.0820
 20
3.0520
 30
0.0000
  0
SEQEND
  8
0
  0
POLYLINE
  8
46
 66
1
 10
0.0000
 20
0.0000
 30
0.0000
 40
1.0000
 41
1.0000
 70
0
  0
VERTEX
  8
46
 10
23.1140
 20
3.3020
 30
0.0000
  0
VERTEX
  8
46
 10
23.1140
 20
1.2700
 30
0.0000
  0
SEQEND
  8
0
  0
POLYLINE
  8
46
 66
1
 10
0.0000
 20
0.0000
 30
0.0000
 40
0.5000
 41
0.5000
 70
0
  0
VERTEX
  8
46
 10
22.8640
 20
1.2700
 30
0.0000
 42
1.0000
  0
VERTEX
  8
46
 10
23.3640
 20
1.2700
 30
0.0000
  0
SEQEND
  8
0
  0
POLYLINE
  8
46
 66
1
 10
0.0000
 20
0.0000
 30
0.0000
 40
0.5000
 41
0.5000
 70
0
  0
VERTEX
  8
46
 10
23.3640
 20
3.3020
 30
0.0000
 42
1.0000
  0
VERTEX
  8
46
 10
22.8640
 20
3.3020
 30
0.0000
  0
SEQEND
  8
0
  0
ENDSEC
  0
EOF
