G75*
%MOIN*%
%OFA0B0*%
%FSLAX24Y24*%
%IPPOS*%
%LPD*%
%AMOC8*
5,1,8,0,0,1.08239X$1,22.5*
%
%ADD10C,0.0000*%
%ADD11R,0.0140X0.0580*%
%ADD12R,0.2430X0.0940*%
%ADD13R,0.0512X0.0591*%
%ADD14R,0.0591X0.0512*%
%ADD15R,0.0520X0.0220*%
%ADD16R,0.0433X0.0394*%
%ADD17R,0.0236X0.0531*%
%ADD18R,0.0157X0.0531*%
%ADD19R,0.0394X0.0433*%
D10*
X000574Y000480D02*
X010416Y000480D01*
X010455Y000482D01*
X010493Y000488D01*
X010530Y000497D01*
X010567Y000510D01*
X010602Y000527D01*
X010635Y000546D01*
X010666Y000569D01*
X010695Y000595D01*
X010721Y000624D01*
X010744Y000655D01*
X010763Y000688D01*
X010780Y000723D01*
X010793Y000760D01*
X010802Y000797D01*
X010808Y000835D01*
X010810Y000874D01*
X010810Y007173D01*
X010808Y007212D01*
X010802Y007250D01*
X010793Y007287D01*
X010780Y007324D01*
X010763Y007359D01*
X010744Y007392D01*
X010721Y007423D01*
X010695Y007452D01*
X010666Y007478D01*
X010635Y007501D01*
X010602Y007520D01*
X010567Y007537D01*
X010530Y007550D01*
X010493Y007559D01*
X010455Y007565D01*
X010416Y007567D01*
X000574Y007567D01*
X000535Y007565D01*
X000497Y007559D01*
X000460Y007550D01*
X000423Y007537D01*
X000388Y007520D01*
X000355Y007501D01*
X000324Y007478D01*
X000295Y007452D01*
X000269Y007423D01*
X000246Y007392D01*
X000227Y007359D01*
X000210Y007324D01*
X000197Y007287D01*
X000188Y007250D01*
X000182Y007212D01*
X000180Y007173D01*
X000180Y000874D01*
X000182Y000835D01*
X000188Y000797D01*
X000197Y000760D01*
X000210Y000723D01*
X000227Y000688D01*
X000246Y000655D01*
X000269Y000624D01*
X000295Y000595D01*
X000324Y000569D01*
X000355Y000546D01*
X000388Y000527D01*
X000423Y000510D01*
X000460Y000497D01*
X000497Y000488D01*
X000535Y000482D01*
X000574Y000480D01*
D11*
X001720Y002830D03*
X001970Y002830D03*
X002230Y002830D03*
X002480Y002830D03*
X002740Y002830D03*
X003000Y002830D03*
X003250Y002830D03*
X003510Y002830D03*
X003760Y002830D03*
X004020Y002830D03*
X004280Y002830D03*
X004530Y002830D03*
X004790Y002830D03*
X005040Y002830D03*
X005040Y005130D03*
X004790Y005130D03*
X004530Y005130D03*
X004280Y005130D03*
X004020Y005130D03*
X003760Y005130D03*
X003510Y005130D03*
X003250Y005130D03*
X003000Y005130D03*
X002740Y005130D03*
X002480Y005130D03*
X002230Y005130D03*
X001970Y005130D03*
X001720Y005130D03*
D12*
X003380Y003980D03*
D13*
X003906Y002080D03*
X004654Y002080D03*
X005606Y002080D03*
X006354Y002080D03*
D14*
X005780Y003506D03*
X005780Y004254D03*
X008780Y002654D03*
X008780Y001906D03*
D15*
X008050Y001910D03*
X007110Y002280D03*
X008050Y002650D03*
D16*
X008780Y003345D03*
X008780Y004015D03*
X008780Y004545D03*
X008780Y005215D03*
X008780Y005745D03*
X008780Y006415D03*
D17*
X008215Y005531D03*
X006345Y005531D03*
X006345Y003228D03*
X008215Y003228D03*
D18*
X007920Y003228D03*
X007664Y003228D03*
X007408Y003231D03*
X007152Y003231D03*
X006896Y003231D03*
X006640Y003231D03*
X006640Y005529D03*
X006896Y005529D03*
X007152Y005529D03*
X007408Y005529D03*
X007664Y005529D03*
X007920Y005529D03*
D19*
X008065Y006380D03*
X007395Y006380D03*
M02*
