solid OpenSCAD_Model
  facet normal 0 1.22465e-16 1
    outer loop
      vertex 23.1143 0 0
      vertex 8.88965 -3.30176 4.04349e-16
      vertex 23.1143 -3.30176 4.04349e-16
    endloop
  endfacet
  facet normal 0 1.22465e-16 1
    outer loop
      vertex 8.88965 -3.30176 4.04349e-16
      vertex 3.30176 -5.33398 6.53225e-16
      vertex 8.88965 -5.33398 6.53225e-16
    endloop
  endfacet
  facet normal 3.45302e-25 1.22465e-16 1
    outer loop
      vertex 0 -1 1.22465e-16
      vertex 3.30176 -5.33398 6.53225e-16
      vertex 1 0 0
    endloop
  endfacet
  facet normal 4.39276e-25 1.22465e-16 1
    outer loop
      vertex 8.88965 -3.30176 4.04349e-16
      vertex 1 0 0
      vertex 3.30176 -5.33398 6.53225e-16
    endloop
  endfacet
  facet normal -0 1.22465e-16 1
    outer loop
      vertex 1 0 0
      vertex 8.88965 -3.30176 4.04349e-16
      vertex 23.1143 0 0
    endloop
  endfacet
  facet normal 0 1.22465e-16 1
    outer loop
      vertex 15.2402 -12.4463 1.52423e-15
      vertex 3.30176 -12.4463 1.52423e-15
      vertex 15.2402 -13.4619 1.64861e-15
    endloop
  endfacet
  facet normal 0 1.22465e-16 1
    outer loop
      vertex 18.0342 -13.4619 1.64861e-15
      vertex 15.2402 -13.4619 1.64861e-15
      vertex 18.0342 -15.748 1.92858e-15
    endloop
  endfacet
  facet normal -0 1.22465e-16 1
    outer loop
      vertex 18.0342 -15.748 1.92858e-15
      vertex 23.1143 -18.0342 2.20855e-15
      vertex 23.1143 -15.748 1.92858e-15
    endloop
  endfacet
  facet normal -8.95481e-25 1.22465e-16 1
    outer loop
      vertex 1 -18.0342 2.20855e-15
      vertex 15.2402 -13.4619 1.64861e-15
      vertex 3.30176 -12.4463 1.52423e-15
    endloop
  endfacet
  facet normal 1.06797e-23 1.22465e-16 1
    outer loop
      vertex 15.2402 -13.4619 1.64861e-15
      vertex 1 -18.0342 2.20855e-15
      vertex 18.0342 -15.748 1.92858e-15
    endloop
  endfacet
  facet normal 0 1.22465e-16 1
    outer loop
      vertex 18.0342 -15.748 1.92858e-15
      vertex 1 -18.0342 2.20855e-15
      vertex 23.1143 -18.0342 2.20855e-15
    endloop
  endfacet
  facet normal -9.86396e-24 1.22465e-16 1
    outer loop
      vertex 3.30176 -5.33398 6.53225e-16
      vertex 0 -1 1.22465e-16
      vertex 3.30176 -12.4463 1.52423e-15
    endloop
  endfacet
  facet normal -2.28188e-25 1.22465e-16 1
    outer loop
      vertex 0 -1 1.22465e-16
      vertex 1 0 0
      vertex 0.879883 -0.00683594 8.37161e-19
    endloop
  endfacet
  facet normal 1.69829e-23 1.22465e-16 1
    outer loop
      vertex 0 -17.0342 2.08609e-15
      vertex 3.30176 -12.4463 1.52423e-15
      vertex 0 -1 1.22465e-16
    endloop
  endfacet
  facet normal -3.39199e-24 1.22465e-16 1
    outer loop
      vertex 0 -1 1.22465e-16
      vertex 0.879883 -0.00683594 8.37161e-19
      vertex 0.760742 -0.0292969 3.58783e-18
    endloop
  endfacet
  facet normal 2.22793e-23 1.22465e-16 1
    outer loop
      vertex 3.30176 -12.4463 1.52423e-15
      vertex 0 -17.0342 2.08609e-15
      vertex 1 -18.0342 2.20855e-15
    endloop
  endfacet
  facet normal 7.37225e-25 1.22465e-16 1
    outer loop
      vertex 0 -1 1.22465e-16
      vertex 0.760742 -0.0292969 3.58783e-18
      vertex 0.645508 -0.0654297 8.01283e-18
    endloop
  endfacet
  facet normal 2.79889e-22 1.22465e-16 1
    outer loop
      vertex 1 -18.0342 2.20855e-15
      vertex 0 -17.0342 2.08609e-15
      vertex 0.879883 -18.0264 2.20759e-15
    endloop
  endfacet
  facet normal -1.16636e-23 1.22465e-16 1
    outer loop
      vertex 0 -1 1.22465e-16
      vertex 0.645508 -0.0654297 8.01283e-18
      vertex 0.535156 -0.114258 1.39925e-17
    endloop
  endfacet
  facet normal -1.87416e-22 1.22465e-16 1
    outer loop
      vertex 0.879883 -18.0264 2.20759e-15
      vertex 0 -17.0342 2.08609e-15
      vertex 0.760742 -18.0049 2.20496e-15
    endloop
  endfacet
  facet normal -1.24829e-24 1.22465e-16 1
    outer loop
      vertex 0 -1 1.22465e-16
      vertex 0.535156 -0.114258 1.39925e-17
      vertex 0.431641 -0.176758 2.16466e-17
    endloop
  endfacet
  facet normal -1.36768e-21 1.22464e-16 1
    outer loop
      vertex 0.760742 -18.0049 2.20496e-15
      vertex 0 -17.0342 2.08609e-15
      vertex 0.645508 -17.9688 2.20054e-15
    endloop
  endfacet
  facet normal -4.2585e-24 1.22465e-16 1
    outer loop
      vertex 0 -1 1.22465e-16
      vertex 0.431641 -0.176758 2.16466e-17
      vertex 0.336914 -0.251953 3.08554e-17
    endloop
  endfacet
  facet normal 1.10888e-21 1.22465e-16 1
    outer loop
      vertex 0.645508 -17.9688 2.20054e-15
      vertex 0 -17.0342 2.08609e-15
      vertex 0.535156 -17.9199 2.19456e-15
    endloop
  endfacet
  facet normal -2.5901e-24 1.22465e-16 1
    outer loop
      vertex 0 -1 1.22465e-16
      vertex 0.336914 -0.251953 3.08554e-17
      vertex 0.251953 -0.336914 4.12601e-17
    endloop
  endfacet
  facet normal 5.85863e-22 1.22465e-16 1
    outer loop
      vertex 0.535156 -17.9199 2.19456e-15
      vertex 0 -17.0342 2.08609e-15
      vertex 0.431641 -17.8574 2.1869e-15
    endloop
  endfacet
  facet normal 0 1.22465e-16 1
    outer loop
      vertex 0 -1 1.22465e-16
      vertex 0.251953 -0.336914 4.12601e-17
      vertex 0.176758 -0.431641 5.28607e-17
    endloop
  endfacet
  facet normal -3.107e-21 1.22463e-16 1
    outer loop
      vertex 0.431641 -17.8574 2.1869e-15
      vertex 0 -17.0342 2.08609e-15
      vertex 0.336914 -17.7822 2.17769e-15
    endloop
  endfacet
  facet normal -8.3287e-23 1.22465e-16 1
    outer loop
      vertex 0 -1 1.22465e-16
      vertex 0.176758 -0.431641 5.28607e-17
      vertex 0.114258 -0.535156 6.55377e-17
    endloop
  endfacet
  facet normal 3.55214e-21 1.22466e-16 1
    outer loop
      vertex 0.336914 -17.7822 2.17769e-15
      vertex 0 -17.0342 2.08609e-15
      vertex 0.251953 -17.6973 2.16729e-15
    endloop
  endfacet
  facet normal 1.04408e-22 1.22465e-16 1
    outer loop
      vertex 0 -1 1.22465e-16
      vertex 0.114258 -0.535156 6.55377e-17
      vertex 0.0654297 -0.645508 7.90519e-17
    endloop
  endfacet
  facet normal -2.31502e-21 1.22464e-16 1
    outer loop
      vertex 0.251953 -17.6973 2.16729e-15
      vertex 0 -17.0342 2.08609e-15
      vertex 0.176758 -17.6025 2.15569e-15
    endloop
  endfacet
  facet normal -2.40389e-22 1.22465e-16 1
    outer loop
      vertex 0 -1 1.22465e-16
      vertex 0.0654297 -0.645508 7.90519e-17
      vertex 0.0292969 -0.760742 9.3164e-17
    endloop
  endfacet
  facet normal -4.10583e-21 1.22463e-16 1
    outer loop
      vertex 0.176758 -17.6025 2.15569e-15
      vertex 0 -17.0342 2.08609e-15
      vertex 0.114258 -17.499 2.14301e-15
    endloop
  endfacet
  facet normal -1.6812e-22 1.22465e-16 1
    outer loop
      vertex 0 -1 1.22465e-16
      vertex 0.0292969 -0.760742 9.3164e-17
      vertex 0.00683594 -0.879883 1.07755e-16
    endloop
  endfacet
  facet normal 6.33365e-21 1.22466e-16 1
    outer loop
      vertex 0.114258 -17.499 2.14301e-15
      vertex 0 -17.0342 2.08609e-15
      vertex 0.0654297 -17.3887 2.1295e-15
    endloop
  endfacet
  facet normal -4.35643e-21 1.22464e-16 1
    outer loop
      vertex 0.0654297 -17.3887 2.1295e-15
      vertex 0 -17.0342 2.08609e-15
      vertex 0.0292969 -17.2734 2.11539e-15
    endloop
  endfacet
  facet normal -1.03205e-20 1.22463e-16 1
    outer loop
      vertex 0.0292969 -17.2734 2.11539e-15
      vertex 0 -17.0342 2.08609e-15
      vertex 0.00683594 -17.1543 2.1008e-15
    endloop
  endfacet
  facet normal 0 0 1
    outer loop
      vertex 23.1143 -3.30176 -1.2
      vertex 18.0342 -13.4619 -1.2
      vertex 23.1143 -15.748 -1.2
    endloop
  endfacet
  facet normal 0 0 1
    outer loop
      vertex 23.1143 -3.30176 -1.2
      vertex 15.2402 -12.4463 -1.2
      vertex 18.0342 -13.4619 -1.2
    endloop
  endfacet
  facet normal 0 0 1
    outer loop
      vertex 8.88965 -5.33398 -1.2
      vertex 23.1143 -3.30176 -1.2
      vertex 8.88965 -3.30176 -1.2
    endloop
  endfacet
  facet normal 0 0 1
    outer loop
      vertex 23.1143 -3.30176 -1.2
      vertex 8.88965 -5.33398 -1.2
      vertex 15.2402 -12.4463 -1.2
    endloop
  endfacet
  facet normal 0 0 1
    outer loop
      vertex 3.30176 -12.4463 -1.2
      vertex 8.88965 -5.33398 -1.2
      vertex 3.30176 -5.33398 -1.2
    endloop
  endfacet
  facet normal 0 0 1
    outer loop
      vertex 8.88965 -5.33398 -1.2
      vertex 3.30176 -12.4463 -1.2
      vertex 15.2402 -12.4463 -1.2
    endloop
  endfacet
  facet normal 0 0 1
    outer loop
      vertex 25.6699 -1.46958e-16 -1.2
      vertex 26.6699 -1 -1.2
      vertex 26.6631 -0.879883 -1.2
    endloop
  endfacet
  facet normal 0 0 1
    outer loop
      vertex 26.6699 -1 -1.2
      vertex 23.1143 -3.30176 -1.2
      vertex 26.6699 -17.0342 -1.2
    endloop
  endfacet
  facet normal 0 0 1
    outer loop
      vertex 25.6699 -1.46958e-16 -1.2
      vertex 26.6631 -0.879883 -1.2
      vertex 26.6406 -0.760742 -1.2
    endloop
  endfacet
  facet normal -0 0 1
    outer loop
      vertex 23.1143 -15.748 -1.2
      vertex 26.6699 -17.0342 -1.2
      vertex 23.1143 -3.30176 -1.2
    endloop
  endfacet
  facet normal 0 0 1
    outer loop
      vertex 25.6699 -1.46958e-16 -1.2
      vertex 26.6406 -0.760742 -1.2
      vertex 26.6055 -0.645508 -1.2
    endloop
  endfacet
  facet normal 0 -0 1
    outer loop
      vertex 25.6699 -18.0342 -1.2
      vertex 26.6699 -17.0342 -1.2
      vertex 23.1143 -15.748 -1.2
    endloop
  endfacet
  facet normal 0 0 1
    outer loop
      vertex 25.6699 -1.46958e-16 -1.2
      vertex 26.6055 -0.645508 -1.2
      vertex 26.5557 -0.535156 -1.2
    endloop
  endfacet
  facet normal 0 0 1
    outer loop
      vertex 26.6699 -17.0342 -1.2
      vertex 25.6699 -18.0342 -1.2
      vertex 26.6631 -17.1543 -1.2
    endloop
  endfacet
  facet normal 0 0 1
    outer loop
      vertex 25.6699 -1.46958e-16 -1.2
      vertex 26.5557 -0.535156 -1.2
      vertex 26.4932 -0.431641 -1.2
    endloop
  endfacet
  facet normal 0 0 1
    outer loop
      vertex 26.6631 -17.1543 -1.2
      vertex 25.6699 -18.0342 -1.2
      vertex 26.6406 -17.2734 -1.2
    endloop
  endfacet
  facet normal 0 0 1
    outer loop
      vertex 25.6699 -1.46958e-16 -1.2
      vertex 26.4932 -0.431641 -1.2
      vertex 26.4189 -0.336914 -1.2
    endloop
  endfacet
  facet normal 0 0 1
    outer loop
      vertex 26.6406 -17.2734 -1.2
      vertex 25.6699 -18.0342 -1.2
      vertex 26.6055 -17.3887 -1.2
    endloop
  endfacet
  facet normal 0 0 1
    outer loop
      vertex 25.6699 -1.46958e-16 -1.2
      vertex 26.4189 -0.336914 -1.2
      vertex 26.333 -0.251953 -1.2
    endloop
  endfacet
  facet normal 0 0 1
    outer loop
      vertex 26.6055 -17.3887 -1.2
      vertex 25.6699 -18.0342 -1.2
      vertex 26.5557 -17.499 -1.2
    endloop
  endfacet
  facet normal 0 0 1
    outer loop
      vertex 25.6699 -1.46958e-16 -1.2
      vertex 26.333 -0.251953 -1.2
      vertex 26.2383 -0.176758 -1.2
    endloop
  endfacet
  facet normal 0 0 1
    outer loop
      vertex 26.5557 -17.499 -1.2
      vertex 25.6699 -18.0342 -1.2
      vertex 26.4932 -17.6025 -1.2
    endloop
  endfacet
  facet normal 0 0 1
    outer loop
      vertex 25.6699 -1.46958e-16 -1.2
      vertex 26.2383 -0.176758 -1.2
      vertex 26.1348 -0.114258 -1.2
    endloop
  endfacet
  facet normal 0 0 1
    outer loop
      vertex 26.4932 -17.6025 -1.2
      vertex 25.6699 -18.0342 -1.2
      vertex 26.4189 -17.6973 -1.2
    endloop
  endfacet
  facet normal 0 0 1
    outer loop
      vertex 25.6699 -1.46958e-16 -1.2
      vertex 26.1348 -0.114258 -1.2
      vertex 26.0244 -0.0654297 -1.2
    endloop
  endfacet
  facet normal 0 0 1
    outer loop
      vertex 26.4189 -17.6973 -1.2
      vertex 25.6699 -18.0342 -1.2
      vertex 26.333 -17.7822 -1.2
    endloop
  endfacet
  facet normal 0 0 1
    outer loop
      vertex 25.6699 -1.46958e-16 -1.2
      vertex 26.0244 -0.0654297 -1.2
      vertex 25.9092 -0.0292969 -1.2
    endloop
  endfacet
  facet normal 0 0 1
    outer loop
      vertex 26.333 -17.7822 -1.2
      vertex 25.6699 -18.0342 -1.2
      vertex 26.2383 -17.8574 -1.2
    endloop
  endfacet
  facet normal 0 0 1
    outer loop
      vertex 25.6699 -1.46958e-16 -1.2
      vertex 25.9092 -0.0292969 -1.2
      vertex 25.791 -0.00683594 -1.2
    endloop
  endfacet
  facet normal 0 0 1
    outer loop
      vertex 26.2383 -17.8574 -1.2
      vertex 25.6699 -18.0342 -1.2
      vertex 26.1348 -17.9199 -1.2
    endloop
  endfacet
  facet normal 0 0 1
    outer loop
      vertex 26.6699 -1 -1.2
      vertex 25.6699 -1.46958e-16 -1.2
      vertex 23.1143 -3.30176 -1.2
    endloop
  endfacet
  facet normal 0 0 1
    outer loop
      vertex 26.1348 -17.9199 -1.2
      vertex 25.6699 -18.0342 -1.2
      vertex 26.0244 -17.9688 -1.2
    endloop
  endfacet
  facet normal 0 0 1
    outer loop
      vertex 23.1143 -3.30176 -1.2
      vertex 25.6699 -1.46958e-16 -1.2
      vertex 23.1143 -1.46958e-16 -1.2
    endloop
  endfacet
  facet normal 0 0 1
    outer loop
      vertex 26.0244 -17.9688 -1.2
      vertex 25.6699 -18.0342 -1.2
      vertex 25.9092 -18.0049 -1.2
    endloop
  endfacet
  facet normal 0 0 1
    outer loop
      vertex 25.9092 -18.0049 -1.2
      vertex 25.6699 -18.0342 -1.2
      vertex 25.791 -18.0264 -1.2
    endloop
  endfacet
  facet normal 0 0 1
    outer loop
      vertex 25.6699 -18.0342 -1.2
      vertex 23.1143 -15.748 -1.2
      vertex 23.1143 -18.0342 -1.2
    endloop
  endfacet
  facet normal 0 0 1
    outer loop
      vertex 23.1143 -15.748 -1.2
      vertex 18.0342 -13.4619 -1.2
      vertex 18.0342 -15.748 -1.2
    endloop
  endfacet
  facet normal 0 0 1
    outer loop
      vertex 18.0342 -13.4619 -1.2
      vertex 15.2402 -12.4463 -1.2
      vertex 15.2402 -13.4619 -1.2
    endloop
  endfacet
  facet normal 0 -1 0
    outer loop
      vertex 8.88965 -3.30176 -1.2
      vertex 23.1143 -3.30176 4.04349e-16
      vertex 8.88965 -3.30176 4.04349e-16
    endloop
  endfacet
  facet normal 0 -1 -0
    outer loop
      vertex 23.1143 -3.30176 4.04349e-16
      vertex 8.88965 -3.30176 -1.2
      vertex 23.1143 -3.30176 -1.2
    endloop
  endfacet
  facet normal 1 0 0
    outer loop
      vertex 8.88965 -5.33398 6.53225e-16
      vertex 8.88965 -3.30176 -1.2
      vertex 8.88965 -3.30176 4.04349e-16
    endloop
  endfacet
  facet normal 1 0 0
    outer loop
      vertex 8.88965 -3.30176 -1.2
      vertex 8.88965 -5.33398 6.53225e-16
      vertex 8.88965 -5.33398 -1.2
    endloop
  endfacet
  facet normal 0 -1 0
    outer loop
      vertex 3.30176 -5.33398 -1.2
      vertex 8.88965 -5.33398 6.53225e-16
      vertex 3.30176 -5.33398 6.53225e-16
    endloop
  endfacet
  facet normal 0 -1 -0
    outer loop
      vertex 8.88965 -5.33398 6.53225e-16
      vertex 3.30176 -5.33398 -1.2
      vertex 8.88965 -5.33398 -1.2
    endloop
  endfacet
  facet normal 1 0 0
    outer loop
      vertex 3.30176 -12.4463 1.52423e-15
      vertex 3.30176 -5.33398 -1.2
      vertex 3.30176 -5.33398 6.53225e-16
    endloop
  endfacet
  facet normal 1 0 0
    outer loop
      vertex 3.30176 -5.33398 -1.2
      vertex 3.30176 -12.4463 1.52423e-15
      vertex 3.30176 -12.4463 -1.2
    endloop
  endfacet
  facet normal 0 1 -0
    outer loop
      vertex 15.2402 -12.4463 -1.2
      vertex 3.30176 -12.4463 1.52423e-15
      vertex 15.2402 -12.4463 1.52423e-15
    endloop
  endfacet
  facet normal 0 1 0
    outer loop
      vertex 3.30176 -12.4463 1.52423e-15
      vertex 15.2402 -12.4463 -1.2
      vertex 3.30176 -12.4463 -1.2
    endloop
  endfacet
  facet normal 1 0 0
    outer loop
      vertex 15.2402 -13.4619 1.64861e-15
      vertex 15.2402 -12.4463 -1.2
      vertex 15.2402 -12.4463 1.52423e-15
    endloop
  endfacet
  facet normal 1 0 0
    outer loop
      vertex 15.2402 -12.4463 -1.2
      vertex 15.2402 -13.4619 1.64861e-15
      vertex 15.2402 -13.4619 -1.2
    endloop
  endfacet
  facet normal 0 1 -0
    outer loop
      vertex 18.0342 -13.4619 -1.2
      vertex 15.2402 -13.4619 1.64861e-15
      vertex 18.0342 -13.4619 1.64861e-15
    endloop
  endfacet
  facet normal 0 1 0
    outer loop
      vertex 15.2402 -13.4619 1.64861e-15
      vertex 18.0342 -13.4619 -1.2
      vertex 15.2402 -13.4619 -1.2
    endloop
  endfacet
  facet normal 1 0 0
    outer loop
      vertex 18.0342 -15.748 1.92858e-15
      vertex 18.0342 -13.4619 -1.2
      vertex 18.0342 -13.4619 1.64861e-15
    endloop
  endfacet
  facet normal 1 0 0
    outer loop
      vertex 18.0342 -13.4619 -1.2
      vertex 18.0342 -15.748 1.92858e-15
      vertex 18.0342 -15.748 -1.2
    endloop
  endfacet
  facet normal 0 1 -0
    outer loop
      vertex 23.1143 -15.748 -1.2
      vertex 18.0342 -15.748 1.92858e-15
      vertex 23.1143 -15.748 1.92858e-15
    endloop
  endfacet
  facet normal 0 1 0
    outer loop
      vertex 18.0342 -15.748 1.92858e-15
      vertex 23.1143 -15.748 -1.2
      vertex 18.0342 -15.748 -1.2
    endloop
  endfacet
  facet normal 1 0 0
    outer loop
      vertex 23.1143 -18.0342 2.20855e-15
      vertex 23.1143 -15.748 -1.2
      vertex 23.1143 -15.748 1.92858e-15
    endloop
  endfacet
  facet normal 1 0 0
    outer loop
      vertex 23.1143 -15.748 -1.2
      vertex 23.1143 -18.0342 2.20855e-15
      vertex 23.1143 -18.0342 -1.2
    endloop
  endfacet
  facet normal 0 -1 0
    outer loop
      vertex 1 -18.0342 2.20855e-15
      vertex 23.1143 -18.0342 -1.2
      vertex 23.1143 -18.0342 2.20855e-15
    endloop
  endfacet
  facet normal 0 -1 0
    outer loop
      vertex 1 -18.0342 -1.8
      vertex 23.1143 -18.0342 -1.2
      vertex 1 -18.0342 2.20855e-15
    endloop
  endfacet
  facet normal 0 -1 0
    outer loop
      vertex 25.6699 -18.0342 -1.8
      vertex 23.1143 -18.0342 -1.2
      vertex 1 -18.0342 -1.8
    endloop
  endfacet
  facet normal 0 -1 0
    outer loop
      vertex 23.1143 -18.0342 -1.2
      vertex 25.6699 -18.0342 -1.8
      vertex 25.6699 -18.0342 -1.2
    endloop
  endfacet
  facet normal -0.0649035 -0.997892 0
    outer loop
      vertex 0.879883 -18.0264 -1.8
      vertex 1 -18.0342 2.20855e-15
      vertex 0.879883 -18.0264 2.20759e-15
    endloop
  endfacet
  facet normal -0.0649035 -0.997892 -0
    outer loop
      vertex 1 -18.0342 2.20855e-15
      vertex 0.879883 -18.0264 -1.8
      vertex 1 -18.0342 -1.8
    endloop
  endfacet
  facet normal -0.177466 -0.984127 0
    outer loop
      vertex 0.760742 -18.0049 -1.8
      vertex 0.879883 -18.0264 2.20759e-15
      vertex 0.760742 -18.0049 2.20496e-15
    endloop
  endfacet
  facet normal -0.177466 -0.984127 -0
    outer loop
      vertex 0.879883 -18.0264 2.20759e-15
      vertex 0.760742 -18.0049 -1.8
      vertex 0.879883 -18.0264 -1.8
    endloop
  endfacet
  facet normal -0.299196 -0.954192 0
    outer loop
      vertex 0.645508 -17.9688 -1.8
      vertex 0.760742 -18.0049 2.20496e-15
      vertex 0.645508 -17.9688 2.20054e-15
    endloop
  endfacet
  facet normal -0.299196 -0.954192 -0
    outer loop
      vertex 0.760742 -18.0049 2.20496e-15
      vertex 0.645508 -17.9688 -1.8
      vertex 0.760742 -18.0049 -1.8
    endloop
  endfacet
  facet normal -0.404636 -0.914478 0
    outer loop
      vertex 0.535156 -17.9199 -1.8
      vertex 0.645508 -17.9688 2.20054e-15
      vertex 0.535156 -17.9199 2.19456e-15
    endloop
  endfacet
  facet normal -0.404636 -0.914478 -0
    outer loop
      vertex 0.645508 -17.9688 2.20054e-15
      vertex 0.535156 -17.9199 -1.8
      vertex 0.645508 -17.9688 -1.8
    endloop
  endfacet
  facet normal -0.516869 -0.856064 0
    outer loop
      vertex 0.431641 -17.8574 -1.8
      vertex 0.535156 -17.9199 2.19456e-15
      vertex 0.431641 -17.8574 2.1869e-15
    endloop
  endfacet
  facet normal -0.516869 -0.856064 -0
    outer loop
      vertex 0.535156 -17.9199 2.19456e-15
      vertex 0.431641 -17.8574 -1.8
      vertex 0.535156 -17.9199 -1.8
    endloop
  endfacet
  facet normal -0.621736 -0.783226 0
    outer loop
      vertex 0.336914 -17.7822 -1.8
      vertex 0.431641 -17.8574 2.1869e-15
      vertex 0.336914 -17.7822 2.17769e-15
    endloop
  endfacet
  facet normal -0.621736 -0.783226 -0
    outer loop
      vertex 0.431641 -17.8574 2.1869e-15
      vertex 0.336914 -17.7822 -1.8
      vertex 0.431641 -17.8574 -1.8
    endloop
  endfacet
  facet normal -0.707107 -0.707107 0
    outer loop
      vertex 0.336914 -17.7822 -1.8
      vertex 0.251953 -17.6973 2.16729e-15
      vertex 0.251953 -17.6973 -1.8
    endloop
  endfacet
  facet normal -0.707107 -0.707107 0
    outer loop
      vertex 0.251953 -17.6973 2.16729e-15
      vertex 0.336914 -17.7822 -1.8
      vertex 0.336914 -17.7822 2.17769e-15
    endloop
  endfacet
  facet normal -0.783226 -0.621736 0
    outer loop
      vertex 0.251953 -17.6973 -1.8
      vertex 0.176758 -17.6025 2.15569e-15
      vertex 0.176758 -17.6025 -1.8
    endloop
  endfacet
  facet normal -0.783226 -0.621736 0
    outer loop
      vertex 0.176758 -17.6025 2.15569e-15
      vertex 0.251953 -17.6973 -1.8
      vertex 0.251953 -17.6973 2.16729e-15
    endloop
  endfacet
  facet normal -0.856064 -0.516869 0
    outer loop
      vertex 0.176758 -17.6025 -1.8
      vertex 0.114258 -17.499 2.14301e-15
      vertex 0.114258 -17.499 -1.8
    endloop
  endfacet
  facet normal -0.856064 -0.516869 0
    outer loop
      vertex 0.114258 -17.499 2.14301e-15
      vertex 0.176758 -17.6025 -1.8
      vertex 0.176758 -17.6025 2.15569e-15
    endloop
  endfacet
  facet normal -0.914478 -0.404636 0
    outer loop
      vertex 0.114258 -17.499 -1.8
      vertex 0.0654297 -17.3887 2.1295e-15
      vertex 0.0654297 -17.3887 -1.8
    endloop
  endfacet
  facet normal -0.914478 -0.404636 0
    outer loop
      vertex 0.0654297 -17.3887 2.1295e-15
      vertex 0.114258 -17.499 -1.8
      vertex 0.114258 -17.499 2.14301e-15
    endloop
  endfacet
  facet normal -0.954192 -0.299196 0
    outer loop
      vertex 0.0654297 -17.3887 -1.8
      vertex 0.0292969 -17.2734 2.11539e-15
      vertex 0.0292969 -17.2734 -1.8
    endloop
  endfacet
  facet normal -0.954192 -0.299196 0
    outer loop
      vertex 0.0292969 -17.2734 2.11539e-15
      vertex 0.0654297 -17.3887 -1.8
      vertex 0.0654297 -17.3887 2.1295e-15
    endloop
  endfacet
  facet normal -0.982689 -0.185261 0
    outer loop
      vertex 0.0292969 -17.2734 -1.8
      vertex 0.00683594 -17.1543 2.1008e-15
      vertex 0.00683594 -17.1543 -1.8
    endloop
  endfacet
  facet normal -0.982689 -0.185261 0
    outer loop
      vertex 0.00683594 -17.1543 2.1008e-15
      vertex 0.0292969 -17.2734 -1.8
      vertex 0.0292969 -17.2734 2.11539e-15
    endloop
  endfacet
  facet normal -0.998385 -0.0568186 0
    outer loop
      vertex 0.00683594 -17.1543 -1.8
      vertex 0 -17.0342 2.08609e-15
      vertex 0 -17.0342 -1.8
    endloop
  endfacet
  facet normal -0.998385 -0.0568186 0
    outer loop
      vertex 0 -17.0342 2.08609e-15
      vertex 0.00683594 -17.1543 -1.8
      vertex 0.00683594 -17.1543 2.1008e-15
    endloop
  endfacet
  facet normal -1 0 0
    outer loop
      vertex 0 -17.0342 -1.8
      vertex 0 -1 1.22465e-16
      vertex 0 -1 -1.8
    endloop
  endfacet
  facet normal -1 -0 0
    outer loop
      vertex 0 -1 1.22465e-16
      vertex 0 -17.0342 -1.8
      vertex 0 -17.0342 2.08609e-15
    endloop
  endfacet
  facet normal -0.998385 0.0568186 0
    outer loop
      vertex 0 -1 -1.8
      vertex 0.00683594 -0.879883 1.07755e-16
      vertex 0.00683594 -0.879883 -1.8
    endloop
  endfacet
  facet normal -0.998385 0.0568186 0
    outer loop
      vertex 0.00683594 -0.879883 1.07755e-16
      vertex 0 -1 -1.8
      vertex 0 -1 1.22465e-16
    endloop
  endfacet
  facet normal -0.982689 0.185261 0
    outer loop
      vertex 0.00683594 -0.879883 -1.8
      vertex 0.0292969 -0.760742 9.3164e-17
      vertex 0.0292969 -0.760742 -1.8
    endloop
  endfacet
  facet normal -0.982689 0.185261 0
    outer loop
      vertex 0.0292969 -0.760742 9.3164e-17
      vertex 0.00683594 -0.879883 -1.8
      vertex 0.00683594 -0.879883 1.07755e-16
    endloop
  endfacet
  facet normal -0.954192 0.299196 0
    outer loop
      vertex 0.0292969 -0.760742 -1.8
      vertex 0.0654297 -0.645508 7.90519e-17
      vertex 0.0654297 -0.645508 -1.8
    endloop
  endfacet
  facet normal -0.954192 0.299196 0
    outer loop
      vertex 0.0654297 -0.645508 7.90519e-17
      vertex 0.0292969 -0.760742 -1.8
      vertex 0.0292969 -0.760742 9.3164e-17
    endloop
  endfacet
  facet normal -0.914478 0.404636 0
    outer loop
      vertex 0.0654297 -0.645508 -1.8
      vertex 0.114258 -0.535156 6.55377e-17
      vertex 0.114258 -0.535156 -1.8
    endloop
  endfacet
  facet normal -0.914478 0.404636 0
    outer loop
      vertex 0.114258 -0.535156 6.55377e-17
      vertex 0.0654297 -0.645508 -1.8
      vertex 0.0654297 -0.645508 7.90519e-17
    endloop
  endfacet
  facet normal -0.856064 0.516869 0
    outer loop
      vertex 0.114258 -0.535156 -1.8
      vertex 0.176758 -0.431641 5.28607e-17
      vertex 0.176758 -0.431641 -1.8
    endloop
  endfacet
  facet normal -0.856064 0.516869 0
    outer loop
      vertex 0.176758 -0.431641 5.28607e-17
      vertex 0.114258 -0.535156 -1.8
      vertex 0.114258 -0.535156 6.55377e-17
    endloop
  endfacet
  facet normal -0.783226 0.621736 0
    outer loop
      vertex 0.176758 -0.431641 -1.8
      vertex 0.251953 -0.336914 4.12601e-17
      vertex 0.251953 -0.336914 -1.8
    endloop
  endfacet
  facet normal -0.783226 0.621736 0
    outer loop
      vertex 0.251953 -0.336914 4.12601e-17
      vertex 0.176758 -0.431641 -1.8
      vertex 0.176758 -0.431641 5.28607e-17
    endloop
  endfacet
  facet normal -0.707107 0.707107 0
    outer loop
      vertex 0.251953 -0.336914 -1.8
      vertex 0.336914 -0.251953 3.08554e-17
      vertex 0.336914 -0.251953 -1.8
    endloop
  endfacet
  facet normal -0.707107 0.707107 0
    outer loop
      vertex 0.336914 -0.251953 3.08554e-17
      vertex 0.251953 -0.336914 -1.8
      vertex 0.251953 -0.336914 4.12601e-17
    endloop
  endfacet
  facet normal -0.621736 0.783226 0
    outer loop
      vertex 0.431641 -0.176758 -1.8
      vertex 0.336914 -0.251953 3.08554e-17
      vertex 0.431641 -0.176758 2.16466e-17
    endloop
  endfacet
  facet normal -0.621736 0.783226 0
    outer loop
      vertex 0.336914 -0.251953 3.08554e-17
      vertex 0.431641 -0.176758 -1.8
      vertex 0.336914 -0.251953 -1.8
    endloop
  endfacet
  facet normal -0.516869 0.856064 0
    outer loop
      vertex 0.535156 -0.114258 -1.8
      vertex 0.431641 -0.176758 2.16466e-17
      vertex 0.535156 -0.114258 1.39925e-17
    endloop
  endfacet
  facet normal -0.516869 0.856064 0
    outer loop
      vertex 0.431641 -0.176758 2.16466e-17
      vertex 0.535156 -0.114258 -1.8
      vertex 0.431641 -0.176758 -1.8
    endloop
  endfacet
  facet normal -0.404636 0.914478 0
    outer loop
      vertex 0.645508 -0.0654297 -1.8
      vertex 0.535156 -0.114258 1.39925e-17
      vertex 0.645508 -0.0654297 8.01283e-18
    endloop
  endfacet
  facet normal -0.404636 0.914478 0
    outer loop
      vertex 0.535156 -0.114258 1.39925e-17
      vertex 0.645508 -0.0654297 -1.8
      vertex 0.535156 -0.114258 -1.8
    endloop
  endfacet
  facet normal -0.299196 0.954192 0
    outer loop
      vertex 0.760742 -0.0292969 -1.8
      vertex 0.645508 -0.0654297 8.01283e-18
      vertex 0.760742 -0.0292969 3.58783e-18
    endloop
  endfacet
  facet normal -0.299196 0.954192 0
    outer loop
      vertex 0.645508 -0.0654297 8.01283e-18
      vertex 0.760742 -0.0292969 -1.8
      vertex 0.645508 -0.0654297 -1.8
    endloop
  endfacet
  facet normal -0.185261 0.982689 0
    outer loop
      vertex 0.879883 -0.00683594 -1.8
      vertex 0.760742 -0.0292969 3.58783e-18
      vertex 0.879883 -0.00683594 8.37161e-19
    endloop
  endfacet
  facet normal -0.185261 0.982689 0
    outer loop
      vertex 0.760742 -0.0292969 3.58783e-18
      vertex 0.879883 -0.00683594 -1.8
      vertex 0.760742 -0.0292969 -1.8
    endloop
  endfacet
  facet normal -0.0568186 0.998385 -1.22267e-16
    outer loop
      vertex 1 -2.20436e-16 -1.8
      vertex 0.879883 -0.00683594 8.37161e-19
      vertex 1 0 0
    endloop
  endfacet
  facet normal -0.0568186 0.998385 0
    outer loop
      vertex 0.879883 -0.00683594 8.37161e-19
      vertex 1 -2.20436e-16 -1.8
      vertex 0.879883 -0.00683594 -1.8
    endloop
  endfacet
  facet normal 0 1 -1.22465e-16
    outer loop
      vertex 25.6699 -1.46958e-16 -1.2
      vertex 25.6699 -2.20436e-16 -1.8
      vertex 23.1143 -1.46958e-16 -1.2
    endloop
  endfacet
  facet normal 0 1 -1.22465e-16
    outer loop
      vertex 23.1143 -1.46958e-16 -1.2
      vertex 1 0 0
      vertex 23.1143 0 0
    endloop
  endfacet
  facet normal 0 1 -1.22465e-16
    outer loop
      vertex 1 -2.20436e-16 -1.8
      vertex 23.1143 -1.46958e-16 -1.2
      vertex 25.6699 -2.20436e-16 -1.8
    endloop
  endfacet
  facet normal 2.34501e-25 1 -1.22465e-16
    outer loop
      vertex 23.1143 -1.46958e-16 -1.2
      vertex 1 -2.20436e-16 -1.8
      vertex 1 0 0
    endloop
  endfacet
  facet normal 1 0 0
    outer loop
      vertex 23.1143 -3.30176 4.04349e-16
      vertex 23.1143 -1.46958e-16 -1.2
      vertex 23.1143 0 0
    endloop
  endfacet
  facet normal 1 0 0
    outer loop
      vertex 23.1143 -1.46958e-16 -1.2
      vertex 23.1143 -3.30176 4.04349e-16
      vertex 23.1143 -3.30176 -1.2
    endloop
  endfacet
  facet normal 0.0563619 0.99841 -0
    outer loop
      vertex 25.791 -0.00683594 -1.8
      vertex 25.6699 -1.46958e-16 -1.2
      vertex 25.791 -0.00683594 -1.2
    endloop
  endfacet
  facet normal 0.0563619 0.99841 -1.2227e-16
    outer loop
      vertex 25.6699 -1.46958e-16 -1.2
      vertex 25.791 -0.00683594 -1.8
      vertex 25.6699 -2.20436e-16 -1.8
    endloop
  endfacet
  facet normal 0.186739 0.98241 -0
    outer loop
      vertex 25.9092 -0.0292969 -1.8
      vertex 25.791 -0.00683594 -1.2
      vertex 25.9092 -0.0292969 -1.2
    endloop
  endfacet
  facet normal 0.186739 0.98241 0
    outer loop
      vertex 25.791 -0.00683594 -1.2
      vertex 25.9092 -0.0292969 -1.8
      vertex 25.791 -0.00683594 -1.8
    endloop
  endfacet
  facet normal 1 -0 0
    outer loop
      vertex 26.6699 -17.0342 -1.2
      vertex 26.6699 -1 -1.8
      vertex 26.6699 -1 -1.2
    endloop
  endfacet
  facet normal 1 0 0
    outer loop
      vertex 26.6699 -1 -1.8
      vertex 26.6699 -17.0342 -1.2
      vertex 26.6699 -17.0342 -1.8
    endloop
  endfacet
  facet normal 0 0 -1
    outer loop
      vertex 25.6699 -18.0342 -1.8
      vertex 26.6699 -17.0342 -1.8
      vertex 26.6631 -17.1543 -1.8
    endloop
  endfacet
  facet normal -0 0 -1
    outer loop
      vertex 26.6699 -17.0342 -1.8
      vertex 25.6699 -18.0342 -1.8
      vertex 26.6699 -1 -1.8
    endloop
  endfacet
  facet normal 0 0 -1
    outer loop
      vertex 25.6699 -18.0342 -1.8
      vertex 26.6631 -17.1543 -1.8
      vertex 26.6406 -17.2734 -1.8
    endloop
  endfacet
  facet normal 0 0 -1
    outer loop
      vertex 25.6699 -2.20436e-16 -1.8
      vertex 26.6699 -1 -1.8
      vertex 25.6699 -18.0342 -1.8
    endloop
  endfacet
  facet normal 0 0 -1
    outer loop
      vertex 25.6699 -18.0342 -1.8
      vertex 26.6406 -17.2734 -1.8
      vertex 26.6055 -17.3887 -1.8
    endloop
  endfacet
  facet normal 0 0 -1
    outer loop
      vertex 26.6699 -1 -1.8
      vertex 25.6699 -2.20436e-16 -1.8
      vertex 26.6631 -0.879883 -1.8
    endloop
  endfacet
  facet normal 0 0 -1
    outer loop
      vertex 25.6699 -18.0342 -1.8
      vertex 26.6055 -17.3887 -1.8
      vertex 26.5557 -17.499 -1.8
    endloop
  endfacet
  facet normal 0 0 -1
    outer loop
      vertex 26.6631 -0.879883 -1.8
      vertex 25.6699 -2.20436e-16 -1.8
      vertex 26.6406 -0.760742 -1.8
    endloop
  endfacet
  facet normal 0 0 -1
    outer loop
      vertex 25.6699 -18.0342 -1.8
      vertex 26.5557 -17.499 -1.8
      vertex 26.4932 -17.6025 -1.8
    endloop
  endfacet
  facet normal 0 0 -1
    outer loop
      vertex 26.6406 -0.760742 -1.8
      vertex 25.6699 -2.20436e-16 -1.8
      vertex 26.6055 -0.645508 -1.8
    endloop
  endfacet
  facet normal 0 0 -1
    outer loop
      vertex 25.6699 -18.0342 -1.8
      vertex 26.4932 -17.6025 -1.8
      vertex 26.4189 -17.6973 -1.8
    endloop
  endfacet
  facet normal 0 0 -1
    outer loop
      vertex 26.6055 -0.645508 -1.8
      vertex 25.6699 -2.20436e-16 -1.8
      vertex 26.5557 -0.535156 -1.8
    endloop
  endfacet
  facet normal 0 0 -1
    outer loop
      vertex 25.6699 -18.0342 -1.8
      vertex 26.4189 -17.6973 -1.8
      vertex 26.333 -17.7822 -1.8
    endloop
  endfacet
  facet normal 0 0 -1
    outer loop
      vertex 26.5557 -0.535156 -1.8
      vertex 25.6699 -2.20436e-16 -1.8
      vertex 26.4932 -0.431641 -1.8
    endloop
  endfacet
  facet normal 0 0 -1
    outer loop
      vertex 25.6699 -18.0342 -1.8
      vertex 26.333 -17.7822 -1.8
      vertex 26.2383 -17.8574 -1.8
    endloop
  endfacet
  facet normal 0 0 -1
    outer loop
      vertex 26.4932 -0.431641 -1.8
      vertex 25.6699 -2.20436e-16 -1.8
      vertex 26.4189 -0.336914 -1.8
    endloop
  endfacet
  facet normal 0 0 -1
    outer loop
      vertex 25.6699 -18.0342 -1.8
      vertex 26.2383 -17.8574 -1.8
      vertex 26.1348 -17.9199 -1.8
    endloop
  endfacet
  facet normal 0 0 -1
    outer loop
      vertex 26.4189 -0.336914 -1.8
      vertex 25.6699 -2.20436e-16 -1.8
      vertex 26.333 -0.251953 -1.8
    endloop
  endfacet
  facet normal 0 0 -1
    outer loop
      vertex 25.6699 -18.0342 -1.8
      vertex 26.1348 -17.9199 -1.8
      vertex 26.0244 -17.9688 -1.8
    endloop
  endfacet
  facet normal 0 0 -1
    outer loop
      vertex 26.333 -0.251953 -1.8
      vertex 25.6699 -2.20436e-16 -1.8
      vertex 26.2383 -0.176758 -1.8
    endloop
  endfacet
  facet normal 0 0 -1
    outer loop
      vertex 25.6699 -18.0342 -1.8
      vertex 26.0244 -17.9688 -1.8
      vertex 25.9092 -18.0049 -1.8
    endloop
  endfacet
  facet normal 0 0 -1
    outer loop
      vertex 26.2383 -0.176758 -1.8
      vertex 25.6699 -2.20436e-16 -1.8
      vertex 26.1348 -0.114258 -1.8
    endloop
  endfacet
  facet normal 0 0 -1
    outer loop
      vertex 25.6699 -18.0342 -1.8
      vertex 25.9092 -18.0049 -1.8
      vertex 25.791 -18.0264 -1.8
    endloop
  endfacet
  facet normal 0 0 -1
    outer loop
      vertex 26.1348 -0.114258 -1.8
      vertex 25.6699 -2.20436e-16 -1.8
      vertex 26.0244 -0.0654297 -1.8
    endloop
  endfacet
  facet normal 0 0 -1
    outer loop
      vertex 26.0244 -0.0654297 -1.8
      vertex 25.6699 -2.20436e-16 -1.8
      vertex 25.9092 -0.0292969 -1.8
    endloop
  endfacet
  facet normal 0 0 -1
    outer loop
      vertex 25.9092 -0.0292969 -1.8
      vertex 25.6699 -2.20436e-16 -1.8
      vertex 25.791 -0.00683594 -1.8
    endloop
  endfacet
  facet normal 0 0 -1
    outer loop
      vertex 1 -18.0342 -1.8
      vertex 25.6699 -2.20436e-16 -1.8
      vertex 25.6699 -18.0342 -1.8
    endloop
  endfacet
  facet normal 0 0 -1
    outer loop
      vertex 1 -18.0342 -1.8
      vertex 1 -2.20436e-16 -1.8
      vertex 25.6699 -2.20436e-16 -1.8
    endloop
  endfacet
  facet normal 0 0 -1
    outer loop
      vertex 0 -17.0342 -1.8
      vertex 1 -18.0342 -1.8
      vertex 0.879883 -18.0264 -1.8
    endloop
  endfacet
  facet normal 0 0 -1
    outer loop
      vertex 1 -18.0342 -1.8
      vertex 0 -17.0342 -1.8
      vertex 1 -2.20436e-16 -1.8
    endloop
  endfacet
  facet normal 0 0 -1
    outer loop
      vertex 0 -17.0342 -1.8
      vertex 0.879883 -18.0264 -1.8
      vertex 0.760742 -18.0049 -1.8
    endloop
  endfacet
  facet normal 0 0 -1
    outer loop
      vertex 0 -1 -1.8
      vertex 1 -2.20436e-16 -1.8
      vertex 0 -17.0342 -1.8
    endloop
  endfacet
  facet normal 0 0 -1
    outer loop
      vertex 0 -17.0342 -1.8
      vertex 0.760742 -18.0049 -1.8
      vertex 0.645508 -17.9688 -1.8
    endloop
  endfacet
  facet normal 0 0 -1
    outer loop
      vertex 1 -2.20436e-16 -1.8
      vertex 0 -1 -1.8
      vertex 0.879883 -0.00683594 -1.8
    endloop
  endfacet
  facet normal 0 0 -1
    outer loop
      vertex 0 -17.0342 -1.8
      vertex 0.645508 -17.9688 -1.8
      vertex 0.535156 -17.9199 -1.8
    endloop
  endfacet
  facet normal 0 0 -1
    outer loop
      vertex 0.879883 -0.00683594 -1.8
      vertex 0 -1 -1.8
      vertex 0.760742 -0.0292969 -1.8
    endloop
  endfacet
  facet normal 0 0 -1
    outer loop
      vertex 0 -17.0342 -1.8
      vertex 0.535156 -17.9199 -1.8
      vertex 0.431641 -17.8574 -1.8
    endloop
  endfacet
  facet normal 0 0 -1
    outer loop
      vertex 0.760742 -0.0292969 -1.8
      vertex 0 -1 -1.8
      vertex 0.645508 -0.0654297 -1.8
    endloop
  endfacet
  facet normal 0 0 -1
    outer loop
      vertex 0 -17.0342 -1.8
      vertex 0.431641 -17.8574 -1.8
      vertex 0.336914 -17.7822 -1.8
    endloop
  endfacet
  facet normal 0 0 -1
    outer loop
      vertex 0.645508 -0.0654297 -1.8
      vertex 0 -1 -1.8
      vertex 0.535156 -0.114258 -1.8
    endloop
  endfacet
  facet normal 0 0 -1
    outer loop
      vertex 0 -17.0342 -1.8
      vertex 0.336914 -17.7822 -1.8
      vertex 0.251953 -17.6973 -1.8
    endloop
  endfacet
  facet normal 0 0 -1
    outer loop
      vertex 0.535156 -0.114258 -1.8
      vertex 0 -1 -1.8
      vertex 0.431641 -0.176758 -1.8
    endloop
  endfacet
  facet normal 0 0 -1
    outer loop
      vertex 0 -17.0342 -1.8
      vertex 0.251953 -17.6973 -1.8
      vertex 0.176758 -17.6025 -1.8
    endloop
  endfacet
  facet normal 0 0 -1
    outer loop
      vertex 0.431641 -0.176758 -1.8
      vertex 0 -1 -1.8
      vertex 0.336914 -0.251953 -1.8
    endloop
  endfacet
  facet normal 0 0 -1
    outer loop
      vertex 0 -17.0342 -1.8
      vertex 0.176758 -17.6025 -1.8
      vertex 0.114258 -17.499 -1.8
    endloop
  endfacet
  facet normal 0 0 -1
    outer loop
      vertex 0.336914 -0.251953 -1.8
      vertex 0 -1 -1.8
      vertex 0.251953 -0.336914 -1.8
    endloop
  endfacet
  facet normal 0 0 -1
    outer loop
      vertex 0 -17.0342 -1.8
      vertex 0.114258 -17.499 -1.8
      vertex 0.0654297 -17.3887 -1.8
    endloop
  endfacet
  facet normal 0 0 -1
    outer loop
      vertex 0.251953 -0.336914 -1.8
      vertex 0 -1 -1.8
      vertex 0.176758 -0.431641 -1.8
    endloop
  endfacet
  facet normal 0 0 -1
    outer loop
      vertex 0 -17.0342 -1.8
      vertex 0.0654297 -17.3887 -1.8
      vertex 0.0292969 -17.2734 -1.8
    endloop
  endfacet
  facet normal 0 0 -1
    outer loop
      vertex 0.176758 -0.431641 -1.8
      vertex 0 -1 -1.8
      vertex 0.114258 -0.535156 -1.8
    endloop
  endfacet
  facet normal 0 0 -1
    outer loop
      vertex 0 -17.0342 -1.8
      vertex 0.0292969 -17.2734 -1.8
      vertex 0.00683594 -17.1543 -1.8
    endloop
  endfacet
  facet normal 0 0 -1
    outer loop
      vertex 0.114258 -0.535156 -1.8
      vertex 0 -1 -1.8
      vertex 0.0654297 -0.645508 -1.8
    endloop
  endfacet
  facet normal 0 0 -1
    outer loop
      vertex 0.0654297 -0.645508 -1.8
      vertex 0 -1 -1.8
      vertex 0.0292969 -0.760742 -1.8
    endloop
  endfacet
  facet normal 0 0 -1
    outer loop
      vertex 0.0292969 -0.760742 -1.8
      vertex 0 -1 -1.8
      vertex 0.00683594 -0.879883 -1.8
    endloop
  endfacet
  facet normal 0.787162 0.616746 0
    outer loop
      vertex 26.4932 -0.431641 -1.2
      vertex 26.4189 -0.336914 -1.8
      vertex 26.4189 -0.336914 -1.2
    endloop
  endfacet
  facet normal 0.787162 0.616746 0
    outer loop
      vertex 26.4189 -0.336914 -1.8
      vertex 26.4932 -0.431641 -1.2
      vertex 26.4932 -0.431641 -1.8
    endloop
  endfacet
  facet normal 0.516869 -0.856064 0
    outer loop
      vertex 26.1348 -17.9199 -1.8
      vertex 26.2383 -17.8574 -1.2
      vertex 26.1348 -17.9199 -1.2
    endloop
  endfacet
  facet normal 0.516869 -0.856064 0
    outer loop
      vertex 26.2383 -17.8574 -1.2
      vertex 26.1348 -17.9199 -1.8
      vertex 26.2383 -17.8574 -1.8
    endloop
  endfacet
  facet normal 0.178885 -0.98387 0
    outer loop
      vertex 25.791 -18.0264 -1.8
      vertex 25.9092 -18.0049 -1.2
      vertex 25.791 -18.0264 -1.2
    endloop
  endfacet
  facet normal 0.178885 -0.98387 0
    outer loop
      vertex 25.9092 -18.0049 -1.2
      vertex 25.791 -18.0264 -1.8
      vertex 25.9092 -18.0049 -1.8
    endloop
  endfacet
  facet normal 0.299196 0.954192 -0
    outer loop
      vertex 26.0244 -0.0654297 -1.8
      vertex 25.9092 -0.0292969 -1.2
      vertex 26.0244 -0.0654297 -1.2
    endloop
  endfacet
  facet normal 0.299196 0.954192 0
    outer loop
      vertex 25.9092 -0.0292969 -1.2
      vertex 26.0244 -0.0654297 -1.8
      vertex 25.9092 -0.0292969 -1.8
    endloop
  endfacet
  facet normal 0.299196 -0.954192 0
    outer loop
      vertex 25.9092 -18.0049 -1.8
      vertex 26.0244 -17.9688 -1.2
      vertex 25.9092 -18.0049 -1.2
    endloop
  endfacet
  facet normal 0.299196 -0.954192 0
    outer loop
      vertex 26.0244 -17.9688 -1.2
      vertex 25.9092 -18.0049 -1.8
      vertex 26.0244 -17.9688 -1.8
    endloop
  endfacet
  facet normal 0.0643823 -0.997925 0
    outer loop
      vertex 25.6699 -18.0342 -1.8
      vertex 25.791 -18.0264 -1.2
      vertex 25.6699 -18.0342 -1.2
    endloop
  endfacet
  facet normal 0.0643823 -0.997925 0
    outer loop
      vertex 25.791 -18.0264 -1.2
      vertex 25.6699 -18.0342 -1.8
      vertex 25.791 -18.0264 -1.8
    endloop
  endfacet
  facet normal 0.703055 0.711136 -0
    outer loop
      vertex 26.4189 -0.336914 -1.8
      vertex 26.333 -0.251953 -1.2
      vertex 26.4189 -0.336914 -1.2
    endloop
  endfacet
  facet normal 0.703055 0.711136 0
    outer loop
      vertex 26.333 -0.251953 -1.2
      vertex 26.4189 -0.336914 -1.8
      vertex 26.333 -0.251953 -1.8
    endloop
  endfacet
  facet normal 0.516869 0.856064 -0
    outer loop
      vertex 26.2383 -0.176758 -1.8
      vertex 26.1348 -0.114258 -1.2
      vertex 26.2383 -0.176758 -1.2
    endloop
  endfacet
  facet normal 0.516869 0.856064 0
    outer loop
      vertex 26.1348 -0.114258 -1.2
      vertex 26.2383 -0.176758 -1.8
      vertex 26.1348 -0.114258 -1.8
    endloop
  endfacet
  facet normal 0.998385 0.0568186 0
    outer loop
      vertex 26.6699 -1 -1.2
      vertex 26.6631 -0.879883 -1.8
      vertex 26.6631 -0.879883 -1.2
    endloop
  endfacet
  facet normal 0.998385 0.0568186 0
    outer loop
      vertex 26.6631 -0.879883 -1.8
      vertex 26.6699 -1 -1.2
      vertex 26.6699 -1 -1.8
    endloop
  endfacet
  facet normal 0.404636 -0.914478 0
    outer loop
      vertex 26.0244 -17.9688 -1.8
      vertex 26.1348 -17.9199 -1.2
      vertex 26.0244 -17.9688 -1.2
    endloop
  endfacet
  facet normal 0.404636 -0.914478 0
    outer loop
      vertex 26.1348 -17.9199 -1.2
      vertex 26.0244 -17.9688 -1.8
      vertex 26.1348 -17.9199 -1.8
    endloop
  endfacet
  facet normal 0.911468 -0.411371 0
    outer loop
      vertex 26.5557 -17.499 -1.2
      vertex 26.6055 -17.3887 -1.8
      vertex 26.6055 -17.3887 -1.2
    endloop
  endfacet
  facet normal 0.911468 -0.411371 0
    outer loop
      vertex 26.6055 -17.3887 -1.8
      vertex 26.5557 -17.499 -1.2
      vertex 26.5557 -17.499 -1.8
    endloop
  endfacet
  facet normal 0.404636 0.914478 -0
    outer loop
      vertex 26.1348 -0.114258 -1.8
      vertex 26.0244 -0.0654297 -1.2
      vertex 26.1348 -0.114258 -1.2
    endloop
  endfacet
  facet normal 0.404636 0.914478 0
    outer loop
      vertex 26.0244 -0.0654297 -1.2
      vertex 26.1348 -0.114258 -1.8
      vertex 26.0244 -0.0654297 -1.8
    endloop
  endfacet
  facet normal 0.621736 0.783226 -0
    outer loop
      vertex 26.333 -0.251953 -1.8
      vertex 26.2383 -0.176758 -1.2
      vertex 26.333 -0.251953 -1.2
    endloop
  endfacet
  facet normal 0.621736 0.783226 0
    outer loop
      vertex 26.2383 -0.176758 -1.2
      vertex 26.333 -0.251953 -1.8
      vertex 26.2383 -0.176758 -1.8
    endloop
  endfacet
  facet normal 0.911468 0.411371 0
    outer loop
      vertex 26.6055 -0.645508 -1.2
      vertex 26.5557 -0.535156 -1.8
      vertex 26.5557 -0.535156 -1.2
    endloop
  endfacet
  facet normal 0.911468 0.411371 0
    outer loop
      vertex 26.5557 -0.535156 -1.8
      vertex 26.6055 -0.645508 -1.2
      vertex 26.6055 -0.645508 -1.8
    endloop
  endfacet
  facet normal 0.856064 0.516869 0
    outer loop
      vertex 26.5557 -0.535156 -1.2
      vertex 26.4932 -0.431641 -1.8
      vertex 26.4932 -0.431641 -1.2
    endloop
  endfacet
  facet normal 0.856064 0.516869 0
    outer loop
      vertex 26.4932 -0.431641 -1.8
      vertex 26.5557 -0.535156 -1.2
      vertex 26.5557 -0.535156 -1.8
    endloop
  endfacet
  facet normal 0.956477 -0.291807 0
    outer loop
      vertex 26.6055 -17.3887 -1.2
      vertex 26.6406 -17.2734 -1.8
      vertex 26.6406 -17.2734 -1.2
    endloop
  endfacet
  facet normal 0.956477 -0.291807 0
    outer loop
      vertex 26.6406 -17.2734 -1.8
      vertex 26.6055 -17.3887 -1.2
      vertex 26.6055 -17.3887 -1.8
    endloop
  endfacet
  facet normal 0.982689 -0.185261 0
    outer loop
      vertex 26.6406 -17.2734 -1.2
      vertex 26.6631 -17.1543 -1.8
      vertex 26.6631 -17.1543 -1.2
    endloop
  endfacet
  facet normal 0.982689 -0.185261 0
    outer loop
      vertex 26.6631 -17.1543 -1.8
      vertex 26.6406 -17.2734 -1.2
      vertex 26.6406 -17.2734 -1.8
    endloop
  endfacet
  facet normal 0.998385 -0.0568186 0
    outer loop
      vertex 26.6631 -17.1543 -1.2
      vertex 26.6699 -17.0342 -1.8
      vertex 26.6699 -17.0342 -1.2
    endloop
  endfacet
  facet normal 0.998385 -0.0568186 0
    outer loop
      vertex 26.6699 -17.0342 -1.8
      vertex 26.6631 -17.1543 -1.2
      vertex 26.6631 -17.1543 -1.8
    endloop
  endfacet
  facet normal 0.787162 -0.616746 0
    outer loop
      vertex 26.4189 -17.6973 -1.2
      vertex 26.4932 -17.6025 -1.8
      vertex 26.4932 -17.6025 -1.2
    endloop
  endfacet
  facet normal 0.787162 -0.616746 0
    outer loop
      vertex 26.4932 -17.6025 -1.8
      vertex 26.4189 -17.6973 -1.2
      vertex 26.4189 -17.6973 -1.8
    endloop
  endfacet
  facet normal 0.856064 -0.516869 0
    outer loop
      vertex 26.4932 -17.6025 -1.2
      vertex 26.5557 -17.499 -1.8
      vertex 26.5557 -17.499 -1.2
    endloop
  endfacet
  facet normal 0.856064 -0.516869 0
    outer loop
      vertex 26.5557 -17.499 -1.8
      vertex 26.4932 -17.6025 -1.2
      vertex 26.4932 -17.6025 -1.8
    endloop
  endfacet
  facet normal 0.621736 -0.783226 0
    outer loop
      vertex 26.2383 -17.8574 -1.8
      vertex 26.333 -17.7822 -1.2
      vertex 26.2383 -17.8574 -1.2
    endloop
  endfacet
  facet normal 0.621736 -0.783226 0
    outer loop
      vertex 26.333 -17.7822 -1.2
      vertex 26.2383 -17.8574 -1.8
      vertex 26.333 -17.7822 -1.8
    endloop
  endfacet
  facet normal 0.703055 -0.711136 0
    outer loop
      vertex 26.333 -17.7822 -1.8
      vertex 26.4189 -17.6973 -1.2
      vertex 26.333 -17.7822 -1.2
    endloop
  endfacet
  facet normal 0.703055 -0.711136 0
    outer loop
      vertex 26.4189 -17.6973 -1.2
      vertex 26.333 -17.7822 -1.8
      vertex 26.4189 -17.6973 -1.8
    endloop
  endfacet
  facet normal 0.982689 0.185261 0
    outer loop
      vertex 26.6631 -0.879883 -1.2
      vertex 26.6406 -0.760742 -1.8
      vertex 26.6406 -0.760742 -1.2
    endloop
  endfacet
  facet normal 0.982689 0.185261 0
    outer loop
      vertex 26.6406 -0.760742 -1.8
      vertex 26.6631 -0.879883 -1.2
      vertex 26.6631 -0.879883 -1.8
    endloop
  endfacet
  facet normal 0.956477 0.291807 0
    outer loop
      vertex 26.6406 -0.760742 -1.2
      vertex 26.6055 -0.645508 -1.8
      vertex 26.6055 -0.645508 -1.2
    endloop
  endfacet
  facet normal 0.956477 0.291807 0
    outer loop
      vertex 26.6055 -0.645508 -1.8
      vertex 26.6406 -0.760742 -1.2
      vertex 26.6406 -0.760742 -1.8
    endloop
  endfacet
endsolid OpenSCAD_Model
