solid OpenSCAD_Model
  facet normal 0 -0.0627911 0.998027
    outer loop
      vertex 0 13.8133 1.61971
      vertex 1 13.5 1.6
      vertex 1 13.8133 1.61971
    endloop
  endfacet
  facet normal 0 -0.0627911 0.998027
    outer loop
      vertex 1 13.5 1.6
      vertex 0 13.8133 1.61971
      vertex 0 13.5 1.6
    endloop
  endfacet
  facet normal 0 -1 0
    outer loop
      vertex 0 15.9951 3.94302
      vertex 1 15.9951 4.1
      vertex 0 15.9951 4.1
    endloop
  endfacet
  facet normal 0 -1 -0
    outer loop
      vertex 1 15.9951 4.1
      vertex 0 15.9951 3.94302
      vertex 1 15.9951 3.94302
    endloop
  endfacet
  facet normal 0 1 -0
    outer loop
      vertex 1 11.0049 3.94302
      vertex 0 11.0049 4.1
      vertex 1 11.0049 4.1
    endloop
  endfacet
  facet normal 0 1 0
    outer loop
      vertex 0 11.0049 4.1
      vertex 1 11.0049 3.94302
      vertex 0 11.0049 3.94302
    endloop
  endfacet
  facet normal 0 -0.728969 0.684547
    outer loop
      vertex 0 15.2114 2.27758
      vertex 1 15.4263 2.50644
      vertex 0 15.4263 2.50644
    endloop
  endfacet
  facet normal 0 -0.728969 0.684547
    outer loop
      vertex 1 15.4263 2.50644
      vertex 0 15.2114 2.27758
      vertex 1 15.2114 2.27758
    endloop
  endfacet
  facet normal 0 -0.929776 0.368126
    outer loop
      vertex 0 15.7621 3.03555
      vertex 1 15.8776 3.32746
      vertex 0 15.8776 3.32746
    endloop
  endfacet
  facet normal 0 -0.929776 0.368126
    outer loop
      vertex 1 15.8776 3.32746
      vertex 0 15.7621 3.03555
      vertex 1 15.7621 3.03555
    endloop
  endfacet
  facet normal 0 -0.425779 0.904827
    outer loop
      vertex 0 14.7044 1.90923
      vertex 1 14.4203 1.77556
      vertex 1 14.7044 1.90923
    endloop
  endfacet
  facet normal 0 -0.425779 0.904827
    outer loop
      vertex 1 14.4203 1.77556
      vertex 0 14.7044 1.90923
      vertex 0 14.4203 1.77556
    endloop
  endfacet
  facet normal 0 -0.992115 0.125333
    outer loop
      vertex 0 15.9557 3.63155
      vertex 1 15.9951 3.94302
      vertex 0 15.9951 3.94302
    endloop
  endfacet
  facet normal 0 -0.992115 0.125333
    outer loop
      vertex 1 15.9951 3.94302
      vertex 0 15.9557 3.63155
      vertex 1 15.9557 3.63155
    endloop
  endfacet
  facet normal 0 -0.535827 0.844328
    outer loop
      vertex 0 14.9695 2.07746
      vertex 1 14.7044 1.90923
      vertex 1 14.9695 2.07746
    endloop
  endfacet
  facet normal 0 -0.535827 0.844328
    outer loop
      vertex 1 14.7044 1.90923
      vertex 0 14.9695 2.07746
      vertex 0 14.7044 1.90923
    endloop
  endfacet
  facet normal 0 -0.637423 0.770514
    outer loop
      vertex 0 15.2114 2.27758
      vertex 1 14.9695 2.07746
      vertex 1 15.2114 2.27758
    endloop
  endfacet
  facet normal 0 -0.637423 0.770514
    outer loop
      vertex 1 14.9695 2.07746
      vertex 0 15.2114 2.27758
      vertex 0 14.9695 2.07746
    endloop
  endfacet
  facet normal 0 -0.309016 0.951057
    outer loop
      vertex 0 14.4203 1.77556
      vertex 1 14.1217 1.67854
      vertex 1 14.4203 1.77556
    endloop
  endfacet
  facet normal 0 -0.309016 0.951057
    outer loop
      vertex 1 14.1217 1.67854
      vertex 0 14.4203 1.77556
      vertex 0 14.1217 1.67854
    endloop
  endfacet
  facet normal 0 -0.187383 0.982287
    outer loop
      vertex 0 14.1217 1.67854
      vertex 1 13.8133 1.61971
      vertex 1 14.1217 1.67854
    endloop
  endfacet
  facet normal 0 -0.187383 0.982287
    outer loop
      vertex 1 13.8133 1.61971
      vertex 0 14.1217 1.67854
      vertex 0 13.8133 1.61971
    endloop
  endfacet
  facet normal 0 -0.876307 0.481754
    outer loop
      vertex 0 15.6108 2.76043
      vertex 1 15.7621 3.03555
      vertex 0 15.7621 3.03555
    endloop
  endfacet
  facet normal 0 -0.876307 0.481754
    outer loop
      vertex 1 15.7621 3.03555
      vertex 0 15.6108 2.76043
      vertex 1 15.6108 2.76043
    endloop
  endfacet
  facet normal 0 -0.809018 0.587784
    outer loop
      vertex 0 15.4263 2.50644
      vertex 1 15.6108 2.76043
      vertex 0 15.6108 2.76043
    endloop
  endfacet
  facet normal 0 -0.809018 0.587784
    outer loop
      vertex 1 15.6108 2.76043
      vertex 0 15.4263 2.50644
      vertex 1 15.4263 2.50644
    endloop
  endfacet
  facet normal 0 -0.968583 0.248691
    outer loop
      vertex 0 15.8776 3.32746
      vertex 1 15.9557 3.63155
      vertex 0 15.9557 3.63155
    endloop
  endfacet
  facet normal 0 -0.968583 0.248691
    outer loop
      vertex 1 15.9557 3.63155
      vertex 0 15.8776 3.32746
      vertex 1 15.8776 3.32746
    endloop
  endfacet
  facet normal -0 0.425779 0.904827
    outer loop
      vertex 0 12.5797 1.77556
      vertex 1 12.2956 1.90923
      vertex 1 12.5797 1.77556
    endloop
  endfacet
  facet normal 0 0.425779 0.904827
    outer loop
      vertex 1 12.2956 1.90923
      vertex 0 12.5797 1.77556
      vertex 0 12.2956 1.90923
    endloop
  endfacet
  facet normal -0 0.535827 0.844328
    outer loop
      vertex 0 12.2956 1.90923
      vertex 1 12.0305 2.07746
      vertex 1 12.2956 1.90923
    endloop
  endfacet
  facet normal 0 0.535827 0.844328
    outer loop
      vertex 1 12.0305 2.07746
      vertex 0 12.2956 1.90923
      vertex 0 12.0305 2.07746
    endloop
  endfacet
  facet normal -0 0.637423 0.770514
    outer loop
      vertex 0 12.0305 2.07746
      vertex 1 11.7886 2.27758
      vertex 1 12.0305 2.07746
    endloop
  endfacet
  facet normal 0 0.637423 0.770514
    outer loop
      vertex 1 11.7886 2.27758
      vertex 0 12.0305 2.07746
      vertex 0 11.7886 2.27758
    endloop
  endfacet
  facet normal -0 0.187383 0.982287
    outer loop
      vertex 0 13.1867 1.61971
      vertex 1 12.8783 1.67854
      vertex 1 13.1867 1.61971
    endloop
  endfacet
  facet normal 0 0.187383 0.982287
    outer loop
      vertex 1 12.8783 1.67854
      vertex 0 13.1867 1.61971
      vertex 0 12.8783 1.67854
    endloop
  endfacet
  facet normal -0 0.0627911 0.998027
    outer loop
      vertex 0 13.5 1.6
      vertex 1 13.1867 1.61971
      vertex 1 13.5 1.6
    endloop
  endfacet
  facet normal 0 0.0627911 0.998027
    outer loop
      vertex 1 13.1867 1.61971
      vertex 0 13.5 1.6
      vertex 0 13.1867 1.61971
    endloop
  endfacet
  facet normal -0 0.309016 0.951057
    outer loop
      vertex 0 12.8783 1.67854
      vertex 1 12.5797 1.77556
      vertex 1 12.8783 1.67854
    endloop
  endfacet
  facet normal 0 0.309016 0.951057
    outer loop
      vertex 1 12.5797 1.77556
      vertex 0 12.8783 1.67854
      vertex 0 12.5797 1.77556
    endloop
  endfacet
  facet normal 0 0.992115 0.125333
    outer loop
      vertex 1 11.0443 3.63155
      vertex 0 11.0049 3.94302
      vertex 1 11.0049 3.94302
    endloop
  endfacet
  facet normal 0 0.992115 0.125333
    outer loop
      vertex 0 11.0049 3.94302
      vertex 1 11.0443 3.63155
      vertex 0 11.0443 3.63155
    endloop
  endfacet
  facet normal 0 0.929776 0.368126
    outer loop
      vertex 1 11.2379 3.03555
      vertex 0 11.1224 3.32746
      vertex 1 11.1224 3.32746
    endloop
  endfacet
  facet normal 0 0.929776 0.368126
    outer loop
      vertex 0 11.1224 3.32746
      vertex 1 11.2379 3.03555
      vertex 0 11.2379 3.03555
    endloop
  endfacet
  facet normal 0 0.968583 0.248691
    outer loop
      vertex 1 11.1224 3.32746
      vertex 0 11.0443 3.63155
      vertex 1 11.0443 3.63155
    endloop
  endfacet
  facet normal 0 0.968583 0.248691
    outer loop
      vertex 0 11.0443 3.63155
      vertex 1 11.1224 3.32746
      vertex 0 11.1224 3.32746
    endloop
  endfacet
  facet normal 0 0.876307 0.481754
    outer loop
      vertex 1 11.3892 2.76043
      vertex 0 11.2379 3.03555
      vertex 1 11.2379 3.03555
    endloop
  endfacet
  facet normal 0 0.876307 0.481754
    outer loop
      vertex 0 11.2379 3.03555
      vertex 1 11.3892 2.76043
      vertex 0 11.3892 2.76043
    endloop
  endfacet
  facet normal 0 0.809018 0.587784
    outer loop
      vertex 1 11.5737 2.50644
      vertex 0 11.3892 2.76043
      vertex 1 11.3892 2.76043
    endloop
  endfacet
  facet normal 0 0.809018 0.587784
    outer loop
      vertex 0 11.3892 2.76043
      vertex 1 11.5737 2.50644
      vertex 0 11.5737 2.50644
    endloop
  endfacet
  facet normal 0 0.728969 0.684547
    outer loop
      vertex 1 11.7886 2.27758
      vertex 0 11.5737 2.50644
      vertex 1 11.5737 2.50644
    endloop
  endfacet
  facet normal 0 0.728969 0.684547
    outer loop
      vertex 0 11.5737 2.50644
      vertex 1 11.7886 2.27758
      vertex 0 11.7886 2.27758
    endloop
  endfacet
  facet normal -0 0 1
    outer loop
      vertex 0 11.0049 4.1
      vertex 1 11 4.1
      vertex 1 11.0049 4.1
    endloop
  endfacet
  facet normal 0 0 1
    outer loop
      vertex 1 11 4.1
      vertex 0 11.0049 4.1
      vertex 0 11 4.1
    endloop
  endfacet
  facet normal -0 0 1
    outer loop
      vertex 0 16 4.1
      vertex 1 15.9951 4.1
      vertex 1 16 4.1
    endloop
  endfacet
  facet normal 0 0 1
    outer loop
      vertex 1 15.9951 4.1
      vertex 0 16 4.1
      vertex 0 15.9951 4.1
    endloop
  endfacet
  facet normal 0 1 -0
    outer loop
      vertex 1 11 4.1
      vertex 0 11 6.6
      vertex 1 11 6.6
    endloop
  endfacet
  facet normal 0 1 0
    outer loop
      vertex 0 11 6.6
      vertex 1 11 4.1
      vertex 0 11 4.1
    endloop
  endfacet
  facet normal 0 -1 0
    outer loop
      vertex 0 16 4.1
      vertex 1 16 6.6
      vertex 0 16 6.6
    endloop
  endfacet
  facet normal 0 -1 -0
    outer loop
      vertex 1 16 6.6
      vertex 0 16 4.1
      vertex 1 16 4.1
    endloop
  endfacet
  facet normal -1 0 0
    outer loop
      vertex 0 15.9951 3.94302
      vertex 0 27 6.6
      vertex 0 27 0
    endloop
  endfacet
  facet normal -1 0 0
    outer loop
      vertex 0 27 6.6
      vertex 0 15.9951 3.94302
      vertex 0 16 4.1
    endloop
  endfacet
  facet normal -1 0 0
    outer loop
      vertex 0 27 0
      vertex 0 15.9557 3.63155
      vertex 0 15.9951 3.94302
    endloop
  endfacet
  facet normal -1 0 0
    outer loop
      vertex 0 27 0
      vertex 0 15.8776 3.32746
      vertex 0 15.9557 3.63155
    endloop
  endfacet
  facet normal -1 0 0
    outer loop
      vertex 0 27 0
      vertex 0 15.7621 3.03555
      vertex 0 15.8776 3.32746
    endloop
  endfacet
  facet normal -1 0 0
    outer loop
      vertex 0 27 0
      vertex 0 15.6108 2.76043
      vertex 0 15.7621 3.03555
    endloop
  endfacet
  facet normal -1 0 0
    outer loop
      vertex 0 27 0
      vertex 0 15.4263 2.50644
      vertex 0 15.6108 2.76043
    endloop
  endfacet
  facet normal -1 0 0
    outer loop
      vertex 0 27 0
      vertex 0 15.2114 2.27758
      vertex 0 15.4263 2.50644
    endloop
  endfacet
  facet normal -1 0 0
    outer loop
      vertex 0 27 0
      vertex 0 14.9695 2.07746
      vertex 0 15.2114 2.27758
    endloop
  endfacet
  facet normal -1 0 0
    outer loop
      vertex 0 27 0
      vertex 0 14.7044 1.90923
      vertex 0 14.9695 2.07746
    endloop
  endfacet
  facet normal -1 0 0
    outer loop
      vertex 0 27 0
      vertex 0 14.4203 1.77556
      vertex 0 14.7044 1.90923
    endloop
  endfacet
  facet normal -1 0 0
    outer loop
      vertex 0 27 0
      vertex 0 14.1217 1.67854
      vertex 0 14.4203 1.77556
    endloop
  endfacet
  facet normal -1 0 0
    outer loop
      vertex 0 27 0
      vertex 0 13.8133 1.61971
      vertex 0 14.1217 1.67854
    endloop
  endfacet
  facet normal -1 0 0
    outer loop
      vertex 0 27 0
      vertex 0 13.5 1.6
      vertex 0 13.8133 1.61971
    endloop
  endfacet
  facet normal -1 0 0
    outer loop
      vertex 0 0 0
      vertex 0 13.5 1.6
      vertex 0 27 0
    endloop
  endfacet
  facet normal -1 0 0
    outer loop
      vertex 0 11.0049 3.94302
      vertex 0 11 4.1
      vertex 0 11.0049 4.1
    endloop
  endfacet
  facet normal -1 -0 0
    outer loop
      vertex 0 13.5 1.6
      vertex 0 0 0
      vertex 0 13.1867 1.61971
    endloop
  endfacet
  facet normal -1 0 0
    outer loop
      vertex 0 0 0
      vertex 0 12.8783 1.67854
      vertex 0 13.1867 1.61971
    endloop
  endfacet
  facet normal -1 0 0
    outer loop
      vertex 0 0 0
      vertex 0 12.5797 1.77556
      vertex 0 12.8783 1.67854
    endloop
  endfacet
  facet normal -1 0 0
    outer loop
      vertex 0 0 0
      vertex 0 12.2956 1.90923
      vertex 0 12.5797 1.77556
    endloop
  endfacet
  facet normal -1 0 0
    outer loop
      vertex 0 0 0
      vertex 0 12.0305 2.07746
      vertex 0 12.2956 1.90923
    endloop
  endfacet
  facet normal -1 0 0
    outer loop
      vertex 0 0 0
      vertex 0 11.7886 2.27758
      vertex 0 12.0305 2.07746
    endloop
  endfacet
  facet normal -1 0 0
    outer loop
      vertex 0 0 0
      vertex 0 11.5737 2.50644
      vertex 0 11.7886 2.27758
    endloop
  endfacet
  facet normal -1 0 0
    outer loop
      vertex 0 0 0
      vertex 0 11.3892 2.76043
      vertex 0 11.5737 2.50644
    endloop
  endfacet
  facet normal -1 0 0
    outer loop
      vertex 0 0 0
      vertex 0 11.2379 3.03555
      vertex 0 11.3892 2.76043
    endloop
  endfacet
  facet normal -1 0 0
    outer loop
      vertex 0 0 0
      vertex 0 11.1224 3.32746
      vertex 0 11.2379 3.03555
    endloop
  endfacet
  facet normal -1 0 0
    outer loop
      vertex 0 0 0
      vertex 0 11.0443 3.63155
      vertex 0 11.1224 3.32746
    endloop
  endfacet
  facet normal -1 0 0
    outer loop
      vertex 0 0 0
      vertex 0 11.0049 3.94302
      vertex 0 11.0443 3.63155
    endloop
  endfacet
  facet normal -1 0 0
    outer loop
      vertex 0 0 6.6
      vertex 0 11.0049 3.94302
      vertex 0 0 0
    endloop
  endfacet
  facet normal -1 0 0
    outer loop
      vertex 0 11.0049 3.94302
      vertex 0 0 6.6
      vertex 0 11 4.1
    endloop
  endfacet
  facet normal -1 0 0
    outer loop
      vertex 0 11 4.1
      vertex 0 0 6.6
      vertex 0 11 6.6
    endloop
  endfacet
  facet normal -1 -0 0
    outer loop
      vertex 0 27 6.6
      vertex 0 16 4.1
      vertex 0 16 6.6
    endloop
  endfacet
  facet normal -1 -0 0
    outer loop
      vertex 0 16 4.1
      vertex 0 15.9951 3.94302
      vertex 0 15.9951 4.1
    endloop
  endfacet
  facet normal 0 0 1
    outer loop
      vertex 1 11 6.6
      vertex 0 11 6.6
      vertex 1 1 6.6
    endloop
  endfacet
  facet normal 0 0 1
    outer loop
      vertex 57 27 6.6
      vertex 56 26 6.6
      vertex 57 0 6.6
    endloop
  endfacet
  facet normal 0 0 1
    outer loop
      vertex 57 27 6.6
      vertex 1 26 6.6
      vertex 56 26 6.6
    endloop
  endfacet
  facet normal -0 0 1
    outer loop
      vertex 0 27 6.6
      vertex 1 26 6.6
      vertex 57 27 6.6
    endloop
  endfacet
  facet normal 0 0 1
    outer loop
      vertex 0 16 6.6
      vertex 1 26 6.6
      vertex 0 27 6.6
    endloop
  endfacet
  facet normal 0 0 1
    outer loop
      vertex 1 26 6.6
      vertex 0 16 6.6
      vertex 1 16 6.6
    endloop
  endfacet
  facet normal -0 0 1
    outer loop
      vertex 56 1 6.6
      vertex 57 0 6.6
      vertex 56 26 6.6
    endloop
  endfacet
  facet normal -0 0 1
    outer loop
      vertex 1 1 6.6
      vertex 57 0 6.6
      vertex 56 1 6.6
    endloop
  endfacet
  facet normal 0 0 1
    outer loop
      vertex 1 1 6.6
      vertex 0 0 6.6
      vertex 57 0 6.6
    endloop
  endfacet
  facet normal 0 0 1
    outer loop
      vertex 0 0 6.6
      vertex 1 1 6.6
      vertex 0 11 6.6
    endloop
  endfacet
  facet normal 1 -0 0
    outer loop
      vertex 57 0 6.6
      vertex 57 27 0
      vertex 57 27 6.6
    endloop
  endfacet
  facet normal 1 0 0
    outer loop
      vertex 57 27 0
      vertex 57 0 6.6
      vertex 57 0 0
    endloop
  endfacet
  facet normal 0 0 -1
    outer loop
      vertex 0 0 0
      vertex 57 27 0
      vertex 57 0 0
    endloop
  endfacet
  facet normal -0 0 -1
    outer loop
      vertex 57 27 0
      vertex 0 0 0
      vertex 0 27 0
    endloop
  endfacet
  facet normal 0 -1 0
    outer loop
      vertex 0 0 0
      vertex 57 0 6.6
      vertex 0 0 6.6
    endloop
  endfacet
  facet normal 0 -1 -0
    outer loop
      vertex 57 0 6.6
      vertex 0 0 0
      vertex 57 0 0
    endloop
  endfacet
  facet normal 0 1 -0
    outer loop
      vertex 57 27 0
      vertex 0 27 6.6
      vertex 57 27 6.6
    endloop
  endfacet
  facet normal 0 1 0
    outer loop
      vertex 0 27 6.6
      vertex 57 27 0
      vertex 0 27 0
    endloop
  endfacet
  facet normal 1 0 0
    outer loop
      vertex 1 11 6.6
      vertex 1 1 6.6
      vertex 1 11 4.1
    endloop
  endfacet
  facet normal 1 0 0
    outer loop
      vertex 1 11.0049 4.1
      vertex 1 11 4.1
      vertex 1 11.0049 3.94302
    endloop
  endfacet
  facet normal 1 0 0
    outer loop
      vertex 1 16 4.1
      vertex 1 26 6.6
      vertex 1 16 6.6
    endloop
  endfacet
  facet normal 1 0 0
    outer loop
      vertex 1 15.9951 3.94302
      vertex 1 26 6.6
      vertex 1 16 4.1
    endloop
  endfacet
  facet normal 1 0 0
    outer loop
      vertex 1 15.9951 3.94302
      vertex 1 16 4.1
      vertex 1 15.9951 4.1
    endloop
  endfacet
  facet normal 1 0 0
    outer loop
      vertex 1 26 6.6
      vertex 1 15.9951 3.94302
      vertex 1 26 0.599999
    endloop
  endfacet
  facet normal 1 -0 0
    outer loop
      vertex 1 15.9557 3.63155
      vertex 1 26 0.599999
      vertex 1 15.9951 3.94302
    endloop
  endfacet
  facet normal 1 -0 0
    outer loop
      vertex 1 15.8776 3.32746
      vertex 1 26 0.599999
      vertex 1 15.9557 3.63155
    endloop
  endfacet
  facet normal 1 -0 0
    outer loop
      vertex 1 15.7621 3.03555
      vertex 1 26 0.599999
      vertex 1 15.8776 3.32746
    endloop
  endfacet
  facet normal 1 -0 0
    outer loop
      vertex 1 15.6108 2.76043
      vertex 1 26 0.599999
      vertex 1 15.7621 3.03555
    endloop
  endfacet
  facet normal 1 -0 0
    outer loop
      vertex 1 15.4263 2.50644
      vertex 1 26 0.599999
      vertex 1 15.6108 2.76043
    endloop
  endfacet
  facet normal 1 -0 0
    outer loop
      vertex 1 15.2114 2.27758
      vertex 1 26 0.599999
      vertex 1 15.4263 2.50644
    endloop
  endfacet
  facet normal 1 -0 0
    outer loop
      vertex 1 14.9695 2.07746
      vertex 1 26 0.599999
      vertex 1 15.2114 2.27758
    endloop
  endfacet
  facet normal 1 -0 0
    outer loop
      vertex 1 14.7044 1.90923
      vertex 1 26 0.599999
      vertex 1 14.9695 2.07746
    endloop
  endfacet
  facet normal 1 -0 0
    outer loop
      vertex 1 14.4203 1.77556
      vertex 1 26 0.599999
      vertex 1 14.7044 1.90923
    endloop
  endfacet
  facet normal 1 -0 0
    outer loop
      vertex 1 14.1217 1.67854
      vertex 1 26 0.599999
      vertex 1 14.4203 1.77556
    endloop
  endfacet
  facet normal 1 -0 0
    outer loop
      vertex 1 13.8133 1.61971
      vertex 1 26 0.599999
      vertex 1 14.1217 1.67854
    endloop
  endfacet
  facet normal 1 -0 0
    outer loop
      vertex 1 13.5 1.6
      vertex 1 26 0.599999
      vertex 1 13.8133 1.61971
    endloop
  endfacet
  facet normal 1 0 0
    outer loop
      vertex 1 1 0.599999
      vertex 1 13.5 1.6
      vertex 1 13.1867 1.61971
    endloop
  endfacet
  facet normal 1 0 0
    outer loop
      vertex 1 1 6.6
      vertex 1 11.0049 3.94302
      vertex 1 11 4.1
    endloop
  endfacet
  facet normal 1 0 0
    outer loop
      vertex 1 1 0.599999
      vertex 1 11.0049 3.94302
      vertex 1 1 6.6
    endloop
  endfacet
  facet normal 1 0 0
    outer loop
      vertex 1 11.0049 3.94302
      vertex 1 1 0.599999
      vertex 1 11.0443 3.63155
    endloop
  endfacet
  facet normal 1 0 0
    outer loop
      vertex 1 11.0443 3.63155
      vertex 1 1 0.599999
      vertex 1 11.1224 3.32746
    endloop
  endfacet
  facet normal 1 0 0
    outer loop
      vertex 1 11.1224 3.32746
      vertex 1 1 0.599999
      vertex 1 11.2379 3.03555
    endloop
  endfacet
  facet normal 1 0 0
    outer loop
      vertex 1 11.2379 3.03555
      vertex 1 1 0.599999
      vertex 1 11.3892 2.76043
    endloop
  endfacet
  facet normal 1 0 0
    outer loop
      vertex 1 11.3892 2.76043
      vertex 1 1 0.599999
      vertex 1 11.5737 2.50644
    endloop
  endfacet
  facet normal 1 0 0
    outer loop
      vertex 1 11.5737 2.50644
      vertex 1 1 0.599999
      vertex 1 11.7886 2.27758
    endloop
  endfacet
  facet normal 1 0 0
    outer loop
      vertex 1 11.7886 2.27758
      vertex 1 1 0.599999
      vertex 1 12.0305 2.07746
    endloop
  endfacet
  facet normal 1 0 0
    outer loop
      vertex 1 12.0305 2.07746
      vertex 1 1 0.599999
      vertex 1 12.2956 1.90923
    endloop
  endfacet
  facet normal 1 0 0
    outer loop
      vertex 1 13.5 1.6
      vertex 1 1 0.599999
      vertex 1 26 0.599999
    endloop
  endfacet
  facet normal 1 0 0
    outer loop
      vertex 1 12.8783 1.67854
      vertex 1 1 0.599999
      vertex 1 13.1867 1.61971
    endloop
  endfacet
  facet normal 1 0 0
    outer loop
      vertex 1 12.5797 1.77556
      vertex 1 1 0.599999
      vertex 1 12.8783 1.67854
    endloop
  endfacet
  facet normal 1 0 0
    outer loop
      vertex 1 12.2956 1.90923
      vertex 1 1 0.599999
      vertex 1 12.5797 1.77556
    endloop
  endfacet
  facet normal -1 0 0
    outer loop
      vertex 56 1 0.599999
      vertex 56 26 6.6
      vertex 56 26 0.599999
    endloop
  endfacet
  facet normal -1 -0 0
    outer loop
      vertex 56 26 6.6
      vertex 56 1 0.599999
      vertex 56 1 6.6
    endloop
  endfacet
  facet normal 0 -1 0
    outer loop
      vertex 1 26 0.599999
      vertex 56 26 6.6
      vertex 1 26 6.6
    endloop
  endfacet
  facet normal 0 -1 -0
    outer loop
      vertex 56 26 6.6
      vertex 1 26 0.599999
      vertex 56 26 0.599999
    endloop
  endfacet
  facet normal -0 0 1
    outer loop
      vertex 1 26 0.599999
      vertex 56 1 0.599999
      vertex 56 26 0.599999
    endloop
  endfacet
  facet normal 0 0 1
    outer loop
      vertex 56 1 0.599999
      vertex 1 26 0.599999
      vertex 1 1 0.599999
    endloop
  endfacet
  facet normal 0 1 -0
    outer loop
      vertex 56 1 0.599999
      vertex 1 1 6.6
      vertex 56 1 6.6
    endloop
  endfacet
  facet normal 0 1 0
    outer loop
      vertex 1 1 6.6
      vertex 56 1 0.599999
      vertex 1 1 0.599999
    endloop
  endfacet
  facet normal -1 0 0
    outer loop
      vertex 0 30 0
      vertex 0 57 0.599999
      vertex 0 57 0
    endloop
  endfacet
  facet normal -1 -0 0
    outer loop
      vertex 0 57 0.599999
      vertex 0 30 0
      vertex 0 30 0.599999
    endloop
  endfacet
  facet normal -0 0 1
    outer loop
      vertex 0 57 0.599999
      vertex 57 30 0.599999
      vertex 57 57 0.599999
    endloop
  endfacet
  facet normal 0 0 1
    outer loop
      vertex 57 30 0.599999
      vertex 0 57 0.599999
      vertex 0 30 0.599999
    endloop
  endfacet
  facet normal 1 -0 0
    outer loop
      vertex 57 30 0.599999
      vertex 57 57 0
      vertex 57 57 0.599999
    endloop
  endfacet
  facet normal 1 0 0
    outer loop
      vertex 57 57 0
      vertex 57 30 0.599999
      vertex 57 30 0
    endloop
  endfacet
  facet normal 0 0 -1
    outer loop
      vertex 0 30 0
      vertex 57 57 0
      vertex 57 30 0
    endloop
  endfacet
  facet normal -0 0 -1
    outer loop
      vertex 57 57 0
      vertex 0 30 0
      vertex 0 57 0
    endloop
  endfacet
  facet normal 0 -1 0
    outer loop
      vertex 0 30 0
      vertex 57 30 0.599999
      vertex 0 30 0.599999
    endloop
  endfacet
  facet normal 0 -1 -0
    outer loop
      vertex 57 30 0.599999
      vertex 0 30 0
      vertex 57 30 0
    endloop
  endfacet
  facet normal 0 1 -0
    outer loop
      vertex 57 57 0
      vertex 0 57 0.599999
      vertex 57 57 0.599999
    endloop
  endfacet
  facet normal 0 1 0
    outer loop
      vertex 0 57 0.599999
      vertex 57 57 0
      vertex 0 57 0
    endloop
  endfacet
endsolid OpenSCAD_Model
